<?xml version="1.0" encoding="UTF-8" standalone="no"?>
<!-- Created with Inkscape (http://www.inkscape.org/) -->

<svg
   xmlns:dc="http://purl.org/dc/elements/1.1/"
   xmlns:cc="http://creativecommons.org/ns#"
   xmlns:rdf="http://www.w3.org/1999/02/22-rdf-syntax-ns#"
   xmlns:svg="http://www.w3.org/2000/svg"
   xmlns="http://www.w3.org/2000/svg"
   xmlns:sodipodi="http://sodipodi.sourceforge.net/DTD/sodipodi-0.dtd"
   xmlns:inkscape="http://www.inkscape.org/namespaces/inkscape"
   version="1.1"
   id="svg10"
   width="266.87708"
   height="60.432167"
   viewBox="0 0 266.87708 60.432167"
   sodipodi:docname="newlogo.svg"
   inkscape:version="0.92.1 r15371">
  <metadata
     id="metadata16">
    <rdf:RDF>
      <cc:Work
         rdf:about="">
        <dc:format>image/svg+xml</dc:format>
        <dc:type
           rdf:resource="http://purl.org/dc/dcmitype/StillImage" />
        <dc:title></dc:title>
      </cc:Work>
    </rdf:RDF>
  </metadata>
  <defs
     id="defs14" />
  <sodipodi:namedview
     pagecolor="#ffffff"
     bordercolor="#666666"
     borderopacity="1"
     objecttolerance="10"
     gridtolerance="10"
     guidetolerance="10"
     inkscape:pageopacity="0"
     inkscape:pageshadow="2"
     inkscape:window-width="1920"
     inkscape:window-height="1017"
     id="namedview12"
     showgrid="false"
     fit-margin-top="0"
     fit-margin-left="0"
     fit-margin-right="0"
     fit-margin-bottom="0"
     inkscape:zoom="6.3949275"
     inkscape:cx="130.65499"
     inkscape:cy="15.413453"
     inkscape:window-x="-8"
     inkscape:window-y="-8"
     inkscape:window-maximized="1"
     inkscape:current-layer="svg10" />
  <g
     id="g30"
     transform="translate(-3.1229141,-2.7553615)">
    <path
       style="fill:#affbee"
       d="M 32,47 C 31.098708,46.41754 30.975367,46.024514 31.690983,46.015313 32.346024,46.006891 33.160081,46.45 33.5,47 c 0.767305,1.241525 0.421123,1.241525 -1.5,0 z M 3.4588815,43.933469 c -0.3625339,-0.586592 -0.4446839,-1.281 -0.1825556,-1.543128 0.2621283,-0.262129 0.7430661,0.21781 1.0687507,1.066531 0.676184,1.762107 0.099854,2.072058 -0.8861951,0.476597 z"
       id="path40"
       inkscape:connector-curvature="0" />
    <path
       style="fill:#84fdfa"
       d="m 34,43.622445 c 0,-0.207656 0.7875,-0.995156 1.75,-1.75 C 37.336056,40.628574 37.371426,40.663944 36.127555,42.25 34.821186,43.915748 34,44.445479 34,43.622445 Z M 21,39.5 C 20.315311,38.675 19.980111,38 20.255111,38 c 0.275,0 1.0602,0.675 1.744889,1.5 0.684689,0.825 1.019889,1.5 0.744889,1.5 -0.275,0 -1.0602,-0.675 -1.744889,-1.5 z M 38.511283,37.623124 C 39.456588,36.180406 40.419098,35 40.650194,35 c 0.723379,0 -1.604903,3.853975 -2.759298,4.56743 -0.604092,0.373349 -0.324918,-0.501588 0.620387,-1.944306 z M 18,35.5 C 17.315311,34.675 16.980111,34 17.255111,34 c 0.275,0 1.0602,0.675 1.744889,1.5 0.684689,0.825 1.019889,1.5 0.744889,1.5 -0.275,0 -1.0602,-0.675 -1.744889,-1.5 z M 21,18 V 9 h 9 9 v 9 9 h -9 -9 z"
       id="path38"
       inkscape:connector-curvature="0" />
    <path
       style="fill:#84fded"
       d="M 13.393445,56.17241 C 13.791969,55.527584 13.679802,55 13.144186,55 11.937081,55 5.3283086,46.107744 4.8500693,43.840075 4.3595009,41.513944 17.613,31.549111 18.415595,33.64064 c 0.360437,0.939284 0.118001,1.239698 -0.677049,0.838964 -0.6812,-0.34335 0.111454,0.582665 1.761454,2.057809 1.65,1.475145 2.325,2.375145 1.5,2 -0.825,-0.375144 -0.205132,0.425617 1.377485,1.77947 1.582616,1.353853 2.568558,2.961404 2.190983,3.572334 C 24.190708,44.500446 24.50815,45 25.274316,45 c 3.128554,0 1.000284,2.827726 -5.606555,7.44915 -3.849398,2.692618 -6.67284,4.368085 -6.274316,3.72326 z m 32.202047,-1.326918 c 0.441988,-0.715153 0.274326,-0.883069 -0.440573,-0.441237 -0.653875,0.404117 -3.797461,-1.32075 -7.252787,-3.979563 l -6.098689,-4.692834 2.848278,-2.438263 C 36.218275,41.95255 36.825,41.193915 36,41.607739 c -0.825,0.413825 -0.0032,-0.666169 1.826124,-2.399986 1.829368,-1.733816 3.069453,-3.567696 2.755744,-4.075288 -0.31371,-0.507593 0.135625,-1.193815 0.998522,-1.52494 0.959332,-0.36813 4.064116,1.178504 7.99105,3.980705 l 6.422148,4.58275 -4.746794,6.882748 c -2.610737,3.785511 -5.110852,6.897041 -5.555811,6.91451 -0.444959,0.01747 -0.487931,-0.487767 -0.09549,-1.122746 z"
       id="path36"
       inkscape:connector-curvature="0" />
    <path
       style="fill:#62f2d3"
       d="m 27.564293,45.706872 c 0.375531,-0.986221 0.934692,-1.541221 1.242579,-1.233333 0.307887,0.307887 6.34e-4,1.114794 -0.682784,1.793128 -0.987616,0.980267 -1.10248,0.865403 -0.559795,-0.559795 z"
       id="path34"
       inkscape:connector-curvature="0" />
    <path
       style="fill:#1ce8b5"
       d="M 140.7175,61.930039 C 130.53323,59.473725 122.40678,51.896069 119.07597,41.75 118.10341,38.787476 117.3362,38 115.42245,38 113.15281,38 113,37.653046 113,32.5 c 0,-5.083468 0.1754,-5.5 2.31599,-5.5 1.85229,0 2.75372,-1.056121 4.50236,-5.275018 2.98299,-7.19701 6.96894,-11.7465046 13.3261,-15.2101832 4.46524,-2.4328743 6.81016,-2.9879017 14.10555,-3.3386975 L 156,2.7553615 v 6.729308 c 0,6.0231625 -0.18364,6.6519145 -1.75,5.9917775 -0.9625,-0.405642 -4,-0.943869 -6.75,-1.196061 -4.08604,-0.374715 -5.63542,-0.02662 -8.4762,1.904338 C 135.73381,18.421017 131,24.298994 131,26.147883 131,26.616547 135.95,27 142,27 h 11 v 5.5 5.5 h -11.10699 c -12.35666,0 -12.23726,-0.105826 -7.58817,6.725592 3.20437,4.708542 7.29109,6.581466 13.22916,6.062861 2.7313,-0.23854 5.77535,-0.795055 6.76455,-1.236701 1.64931,-0.736359 1.77378,-0.232442 1.5,6.072627 L 155.5,62.5 150,62.671164 c -3.025,0.09414 -7.20212,-0.239365 -9.2825,-0.741125 z M 164,38.593765 V 14 h -2.5 C 159.13636,14 159,13.7 159,8.5 V 3 h 15.80366 C 189.8032,3 190.87179,3.1317941 195.80523,5.5902311 205.4492,10.396028 211,20.364722 211,32.878582 c 0,12.601994 -4.53756,21.413487 -13.84451,26.884651 -4.38273,2.576421 -5.49039,2.756908 -18.90549,3.080532 L 164,63.187529 Z m 27.69211,9.625472 c 1.68372,-1.198917 3.85772,-3.858135 4.83109,-5.909373 C 203.02424,28.609952 195.02971,14 181.03212,14 H 177 v 18.620191 18.620191 l 5.8154,-0.420648 c 3.84688,-0.278259 6.85165,-1.158526 8.87671,-2.600497 z M 71.800515,38.000938 72.101031,14 H 69.550515 C 67.125648,14 67,13.729049 67,8.5 V 3 H 83.032119 C 100.77513,3 103.50903,3.6378373 108.5,8.9418286 c 2.83532,3.0131464 3,3.6428684 3,11.4719944 0,8.027204 -0.10843,8.409634 -3.5,12.344091 -1.925,2.233136 -4.53058,4.444687 -5.79018,4.914558 -2.25117,0.839763 -2.18925,1.007349 3.63597,9.84092 3.25938,4.942634 6.87746,9.843852 8.04018,10.891596 1.16272,1.047743 2.11403,2.285243 2.11403,2.75 C 116,61.619744 112.71515,62 108.70034,62 h -7.29966 L 95.265907,53.25 C 91.891779,48.4375 87.967072,43.15 86.544334,41.5 l -2.586795,-3 0.27123,11.751309 L 84.5,62.002617 78,62.002247 71.5,62.001876 Z m 25.74494,-10.455483 c 3.247345,-3.247346 3.247345,-7.843564 0,-11.09091 C 95.529558,14.438649 94.099888,14 89.545455,14 H 84 v 8 8 h 5.545455 c 4.554433,0 5.984103,-0.438649 8,-2.454545 z M 235.78016,50.003762 236.27423,38.007525 226.13711,21.083305 C 220.5617,11.774984 216,3.8982909 216,3.5795425 c 0,-0.3187484 3.7125,-0.5789188 8.25,-0.5781565 l 8.25,0.00139 1.72635,5.748614 c 0.9495,3.161738 3.14409,8.195143 4.87688,11.185345 3.7026,6.389441 3.08428,6.812058 11.21435,-7.66489 L 255.5,3.0436828 l 7.25,-0.021841 c 3.9875,-0.012013 7.25,0.1408083 7.25,0.3396023 0,0.198794 -2.18133,3.686294 -4.8474,7.7499999 C 262.48652,15.17515 257.70986,23 254.53778,28.5 l -5.7674,10 0.47176,11.75 L 249.7139,62 H 242.5 235.2861 Z M 23.193727,40.044419 C 20.887177,36.773734 19,33.687418 19,33.185939 c 0,-1.468308 8.98746,1.912552 9.125,3.432599 0.382468,4.226919 0.30859,7.679898 -0.181273,8.472513 -0.30595,0.495038 -2.44345,-1.775947 -4.75,-5.046632 z M 31,40.764492 c 0,-5.252443 0.165618,-5.626576 2.914988,-6.585012 1.603244,-0.558894 3.178244,-0.752915 3.5,-0.431159 C 37.736745,34.070078 38,33.808333 38,33.166667 38,32.525 38.675,32 39.5,32 40.325,32 41,32.223736 41,32.497191 41,32.923498 32.553967,44.736692 31.40553,45.916667 31.182489,46.145833 31,43.827355 31,40.764492 Z M 24.961751,30.75 20.529497,27.5 25.264748,27.195209 c 2.604389,-0.167635 6.866115,-0.167635 9.470504,0 L 39.470503,27.5 35.038249,30.75 C 32.600509,32.5375 30.333297,34 30,34 29.666703,34 27.399491,32.5375 24.961751,30.75 Z"
       id="path32"
       inkscape:connector-curvature="0" />
  </g>
</svg>
