<?xml version="1.0" encoding="UTF-8" standalone="no"?>
<!-- Created with Inkscape (http://www.inkscape.org/) -->

<svg
   xmlns:dc="http://purl.org/dc/elements/1.1/"
   xmlns:cc="http://creativecommons.org/ns#"
   xmlns:rdf="http://www.w3.org/1999/02/22-rdf-syntax-ns#"
   xmlns:svg="http://www.w3.org/2000/svg"
   xmlns="http://www.w3.org/2000/svg"
   xmlns:sodipodi="http://sodipodi.sourceforge.net/DTD/sodipodi-0.dtd"
   xmlns:inkscape="http://www.inkscape.org/namespaces/inkscape"
   version="1.1"
   id="svg100"
   width="382.99344"
   height="160.55565"
   viewBox="0 0 382.99344 160.55565"
   sodipodi:docname="block4.svg"
   inkscape:version="0.92.1 r15371">
  <metadata
     id="metadata106">
    <rdf:RDF>
      <cc:Work
         rdf:about="">
        <dc:format>image/svg+xml</dc:format>
        <dc:type
           rdf:resource="http://purl.org/dc/dcmitype/StillImage" />
        <dc:title></dc:title>
      </cc:Work>
    </rdf:RDF>
  </metadata>
  <defs
     id="defs104" />
  <sodipodi:namedview
     pagecolor="#ffffff"
     bordercolor="#666666"
     borderopacity="1"
     objecttolerance="10"
     gridtolerance="10"
     guidetolerance="10"
     inkscape:pageopacity="0"
     inkscape:pageshadow="2"
     inkscape:window-width="1920"
     inkscape:window-height="1017"
     id="namedview102"
     showgrid="false"
     fit-margin-top="0"
     fit-margin-left="0"
     fit-margin-right="0"
     fit-margin-bottom="0"
     inkscape:zoom="1.0486597"
     inkscape:cx="310.99645"
     inkscape:cy="-71.435625"
     inkscape:window-x="-8"
     inkscape:window-y="-8"
     inkscape:window-maximized="1"
     inkscape:current-layer="svg100" />
  <path
     style="fill:#ffffff"
     d="M 61.5,159.19749 C 35.918904,155.13515 20.944091,144.16316 10.217497,121.623 6.8233156,114.49069 2,98.972737 2,95.185022 2,93.904012 1.55,92.577792 0.99999998,92.237872 0.413941,91.875672 0,86.080492 0,78.237872 c 0,-7.84262 0.413941,-13.6378 0.99999998,-14 C 1.55,63.897952 2,62.600212 2,61.354002 2,58.454152 6.0473567,46.529112 9.0036233,40.718692 16.517749,25.950002 31.062086,14.193842 49.5,7.985552 61.787322,3.8482522 70.66198,2.2374522 90.195893,0.59901218 110.1304,-1.0730178 137.47891,0.82612218 159.5,5.4116422 c 3.85,0.8017 12.35013,2.1944798 18.88918,3.0950598 11.07509,1.5253 12.85541,1.52152 26,-0.0553 C 212.15013,7.520422 220.975,6.2773322 224,5.6889722 c 21.16076,-4.11572 48.94795,-6.30539002 63.5,-5.00389002 26.36983,2.35846002 45.30098,7.05407982 59,14.63415982 8.08947,4.47615 20.37275,17.61248 25.17055,26.9186 4.30661,8.35338 9.32945,22.8858 9.32945,26.9926 0,1.31415 0.45,2.66748 1,3.0074 1.2037,0.74392 1.37186,25.667865 0.18251,27.050005 -0.44961,0.5225 -1.39211,3.425003 -2.09443,6.450003 -0.70233,3.025 -3.28479,9.69395 -5.73881,14.81988 -7.37735,15.40975 -20.9517,28.02851 -35.7437,33.22748 -8.7493,3.07513 -20.95495,4.91568 -32.60557,4.91676 -33.44122,0.003 -67.70725,-13.60145 -95.5,-37.91603 -15.6374,-13.68044 -18.93389,-13.59758 -33.89653,0.85199 -21.85625,21.10679 -45.69741,30.90535 -92.685383,38.09309 -7.968708,1.21897 -11.983988,1.1234 -22.418087,-0.53356 z m 69,-65.930758 c 12.65447,-2.95455 14.99166,-3.75515 25.25,-8.64924 3.4375,-1.63998 6.25,-3.37296 6.25,-3.85106 0,-1.563 -13.03724,-10.67607 -20.67871,-14.45448 -14.43835,-7.13921 -29.83686,-9.30912 -42.596982,-6.00264 -10.979409,2.84505 -26.627495,12.00645 -26.693387,15.62803 -0.03278,1.80158 9.532417,9.07703 16.648049,12.6628 11.37651,5.73295 28.88576,7.68671 41.82103,4.66659 z m 162,-3.9686 c 8.24303,-2.54479 29.50252,-13.71309 29.48019,-15.48689 -0.0229,-1.82164 -19.83813,-11.76892 -29.89535,-15.00756 -12.71096,-4.09319 -27.69601,-2.25668 -40.47236,4.96014 -6.69402,3.78117 -17.02069,12.13962 -17.39416,14.07892 -0.2026,1.05199 2.5117,2.86084 8.72021,5.81128 8.70736,4.13795 12.02802,5.28622 20.56147,7.11009 5.73639,1.22605 23.12779,0.3469 29,-1.46598 z"
     id="path136"
     inkscape:connector-curvature="0" />
</svg>
