<?xml version="1.0" encoding="UTF-8" standalone="no"?>
<!-- Created with Inkscape (http://www.inkscape.org/) -->

<svg
   xmlns:dc="http://purl.org/dc/elements/1.1/"
   xmlns:cc="http://creativecommons.org/ns#"
   xmlns:rdf="http://www.w3.org/1999/02/22-rdf-syntax-ns#"
   xmlns:svg="http://www.w3.org/2000/svg"
   xmlns="http://www.w3.org/2000/svg"
   xmlns:sodipodi="http://sodipodi.sourceforge.net/DTD/sodipodi-0.dtd"
   xmlns:inkscape="http://www.inkscape.org/namespaces/inkscape"
   version="1.1"
   id="svg138"
   width="459.93579"
   height="418.29791"
   viewBox="0 0 459.93579 418.29791"
   sodipodi:docname="block5.svg"
   inkscape:version="0.92.1 r15371">
  <metadata
     id="metadata144">
    <rdf:RDF>
      <cc:Work
         rdf:about="">
        <dc:format>image/svg+xml</dc:format>
        <dc:type
           rdf:resource="http://purl.org/dc/dcmitype/StillImage" />
        <dc:title></dc:title>
      </cc:Work>
    </rdf:RDF>
  </metadata>
  <defs
     id="defs142" />
  <sodipodi:namedview
     pagecolor="#ffffff"
     bordercolor="#666666"
     borderopacity="1"
     objecttolerance="10"
     gridtolerance="10"
     guidetolerance="10"
     inkscape:pageopacity="0"
     inkscape:pageshadow="2"
     inkscape:window-width="1920"
     inkscape:window-height="1017"
     id="namedview140"
     showgrid="false"
     fit-margin-top="0"
     fit-margin-left="0"
     fit-margin-right="0"
     fit-margin-bottom="0"
     inkscape:zoom="0.56324582"
     inkscape:cx="-60.302692"
     inkscape:cy="209.34122"
     inkscape:window-x="-8"
     inkscape:window-y="-8"
     inkscape:window-maximized="1"
     inkscape:current-layer="svg138" />
  <path
     style="fill:#188b76;fill-opacity:1"
     d="m 292.10307,416.87985 c -9.91182,-3.16537 -17.79989,-10.21267 -22.30008,-19.92316 -2.35214,-5.07544 -2.78061,-7.30979 -2.78061,-14.5 0,-9.88387 2.61165,-16.84511 8.95325,-23.8645 l 3.72622,-4.12448 -31.23262,-53.98018 c -17.17795,-29.6891 -31.74057,-54.64652 -32.36139,-55.46092 -0.98915,-1.29759 -1.80903,-1.24292 -6.62876,0.44203 -11.61033,4.05889 -25.17907,1.36814 -34.13255,-6.76866 l -2.63255,-2.39242 -51.64501,35.66917 -51.645013,35.66917 0.777566,3.65539 c 0.427661,2.01047 0.741288,6.82346 0.696949,10.69554 -0.256247,22.3777 -23.249855,39.30239 -44.860466,33.02001 C 15.406621,351.92621 7.5062515,345.10536 2.8030003,334.95669 0.45832661,329.89736 0.01899451,327.62078 7.3811314e-4,320.43566 -0.01861389,312.81932 0.32413591,311.21374 3.2290199,305.31308 7.0887037,297.47295 13.376039,291.32496 21.303942,287.63875 c 8.119378,-3.77525 20.208093,-3.78603 28.295157,-0.0252 6.835347,3.17869 13.125903,8.70029 16.530527,14.50984 l 2.539863,4.33395 2.6548,-1.85016 c 1.460139,-1.01763 22.454799,-15.48297 46.654791,-32.14524 58.14001,-40.03076 53.92232,-36.88111 52.09352,-38.90191 -0.82505,-0.91167 -2.74887,-4.34538 -4.27516,-7.63046 -2.3473,-5.0522 -2.77506,-7.2831 -2.77506,-14.47288 0,-10.12712 2.69255,-17.04593 9.51332,-24.4456 2.32969,-2.52742 4.05751,-4.76017 3.83959,-4.96166 C 175.75292,181.47396 68.371393,112.3694 64.67204,110.16365 l -3.307049,-1.97183 -2.692951,2.5759 c -1.481124,1.41674 -5.330328,3.78216 -8.553788,5.25648 C 32.021269,124.30127 11.354769,116.40968 2.8030003,97.95669 0.45832661,92.89736 0.01899451,90.62079 7.3811314e-4,83.43567 -0.01861389,75.81932 0.32413591,74.21375 3.2290199,68.31309 7.0887037,60.47296 13.376039,54.32497 21.303942,50.63875 c 4.730666,-2.1996 7.089749,-2.63876 14.175146,-2.63876 7.085397,0 9.44448,0.43916 14.175146,2.63876 19.955145,9.27849 27.4869,32.71151 16.420738,51.08869 l -3.308853,5.4949 57.701931,37.1326 57.70194,37.13261 5.90455,-2.74378 c 7.78735,-3.6187 20.31062,-3.89493 27.54175,-0.60751 l 4.6372,2.10818 25.24149,-53.64387 c 13.88282,-29.50413 25.43533,-54.33297 25.67224,-55.1752 0.29133,-1.03567 -0.96412,-2.14639 -3.87869,-3.43156 -6.56595,-2.89522 -14.12015,-10.62742 -17.40465,-17.81474 -2.4021,-5.25639 -2.8483,-7.54522 -2.87417,-14.7434 -0.0274,-7.62613 0.31069,-9.21434 3.2193,-15.12258 C 250.0887,12.47296 256.37603,6.32497 264.30393,2.63875 269.0346,0.43915 271.39368,0 278.47908,0 c 7.0854,0 9.44448,0.43915 14.17515,2.63875 7.9279,3.68622 14.21523,9.83421 18.07492,17.67434 2.90488,5.90066 3.24763,7.50623 3.22828,15.12258 -0.0262,10.31326 -2.78732,17.22978 -9.92409,24.85957 -6.93405,7.41305 -14.68995,10.61301 -26.02937,10.73929 l -8.97511,0.1 -25.75503,54.7762 -25.75502,54.7762 4.9225,4.42576 c 5.09137,4.57758 11.03777,14.78373 11.03777,18.94476 0,1.25469 0.48149,2.57883 1.06997,2.94253 0.95916,0.5928 147.57564,-8.13165 152.43003,-9.07038 1.80461,-0.34898 2.00343,-1.19695 2.03506,-8.67981 0.0287,-6.79588 0.50902,-9.3176 2.66041,-13.9682 3.66244,-7.91702 9.81234,-14.21107 17.66092,-18.07492 5.8861,-2.89771 7.52732,-3.24993 15.14361,-3.24993 7.61629,0 9.25751,0.35222 15.14361,3.24993 7.84013,3.85969 13.98812,10.14702 17.67433,18.07492 2.19961,4.73067 2.63876,7.08975 2.63876,14.17515 0,7.1011 -0.43751,9.44106 -2.65841,14.21807 -9.30585,20.0163 -33.68448,27.73558 -51.66715,16.35993 -5.36578,-3.39433 -11.47349,-10.46345 -13.6847,-15.8388 -1.91997,-4.66735 -2.00764,-4.73104 -6.44644,-4.6833 -2.475,0.0266 -37.32077,2.16773 -77.43504,4.75801 l -72.93505,4.70961 -1.20483,7.15058 c -1.51702,9.00335 -5.39378,16.18267 -11.99764,22.21822 l -5.15742,4.7136 31.81509,54.94704 c 17.49831,30.22087 32.17505,54.92049 32.61499,54.88803 0.43995,-0.0325 3.4999,-1.37271 6.7999,-2.97835 5.19206,-2.52623 7.14459,-2.91934 14.5,-2.91934 7.0854,0 9.44448,0.43915 14.17515,2.63876 7.9279,3.68621 14.21523,9.8342 18.07492,17.67433 2.90488,5.90066 3.24763,7.50624 3.22828,15.12258 -0.0262,10.31327 -2.78732,17.22979 -9.92409,24.85957 -8.7091,9.31073 -24.00839,13.39191 -35.93027,9.58462 z m -13.08968,-20.15951 c 3.48765,-8.34713 8.30661,-10.66856 14.05232,-6.76942 2.87654,1.95207 4.95661,2.50577 9.41337,2.50577 4.45676,0 6.53683,-0.5537 9.41337,-2.50577 5.80286,-3.93793 10.51449,-1.6071 14.18934,7.01942 l 1.69816,3.98635 2.58922,-5.5 c 2.07156,-4.40037 2.58716,-6.99949 2.57888,-13 -0.0121,-8.76777 -2.18408,-14.46513 -7.94575,-20.84262 -11.75163,-13.00764 -33.29481,-13.00764 -45.04644,0 -5.77792,6.39546 -7.93716,12.07422 -7.92503,20.84262 0.008,5.68775 0.5763,8.76857 2.35246,12.75 1.28814,2.8875 2.50562,5.25 2.70551,5.25 0.19989,0 1.06596,-1.68136 1.92459,-3.73635 z m 19.37926,-7.18816 c -7.1169,-2.24267 -10.91357,-7.5753 -10.91357,-15.32874 0,-5.40445 2.99709,-10.24488 7.9844,-12.89514 13.04373,-6.93145 26.87097,7.11419 20.40914,20.7315 -2.72709,5.74691 -11.32462,9.43204 -17.47997,7.49238 z M 12.013396,334.72034 c 3.487651,-8.34713 8.306616,-10.66856 14.052325,-6.76942 2.876539,1.95207 4.956608,2.50577 9.413367,2.50577 4.456759,0 6.536828,-0.5537 9.413367,-2.50577 5.802861,-3.93793 10.514497,-1.6071 14.189339,7.01942 l 1.698161,3.98635 2.589224,-5.5 c 2.071554,-4.40037 2.587156,-6.99949 2.57888,-13 -0.01209,-8.76777 -2.184078,-14.46513 -7.945755,-20.84262 -11.751621,-13.00764 -33.294811,-13.00764 -45.046432,0 -5.7779197,6.39546 -7.9371662,12.07422 -7.9250343,20.84262 0.00787,5.68775 0.5763006,8.76857 2.3524574,12.75 1.2881446,2.8875 2.5056266,5.25 2.7055169,5.25 0.19989,0 1.065952,-1.68136 1.924584,-3.73635 z m 19.379264,-7.18816 c -7.116902,-2.24267 -10.913572,-7.5753 -10.913572,-15.32874 0,-5.40445 2.99709,-10.24488 7.984398,-12.89514 13.043732,-6.93145 26.870974,7.11419 20.40914,20.7315 -2.727087,5.74691 -11.324617,9.43204 -17.479966,7.49238 z M 175.01339,225.72034 c 3.48765,-8.34713 8.30661,-10.66856 14.05232,-6.76942 2.87654,1.95207 4.95661,2.50577 9.41337,2.50577 4.45676,0 6.53683,-0.5537 9.41337,-2.50577 5.80286,-3.93793 10.51449,-1.6071 14.18934,7.01942 l 1.69816,3.98635 2.58922,-5.5 c 2.07156,-4.40037 2.58716,-6.99949 2.57888,-13 -0.0121,-8.76777 -2.18408,-14.46513 -7.94575,-20.84262 -11.75163,-13.00764 -33.29481,-13.00764 -45.04644,0 -5.77792,6.39546 -7.93716,12.07422 -7.92503,20.84262 0.008,5.68775 0.5763,8.76857 2.35246,12.75 1.28814,2.8875 2.50562,5.25 2.70551,5.25 0.19989,0 1.06596,-1.68136 1.92459,-3.73635 z m 19.37926,-7.18816 c -7.1169,-2.24267 -10.91357,-7.5753 -10.91357,-15.32874 0,-5.40445 2.99709,-10.24488 7.9844,-12.89514 13.04373,-6.93145 26.87097,7.11419 20.40914,20.7315 -2.72709,5.74691 -11.32462,9.43204 -17.47997,7.49238 z m 206.62074,-14.81184 c 3.48765,-8.34713 8.30661,-10.66856 14.05232,-6.76942 2.87654,1.95207 4.95661,2.50577 9.41337,2.50577 4.45676,0 6.53683,-0.5537 9.41337,-2.50577 5.80286,-3.93793 10.51449,-1.6071 14.18934,7.01942 l 1.69816,3.98635 2.58922,-5.5 c 2.07156,-4.40037 2.58716,-6.99949 2.57888,-13 -0.0121,-8.76777 -2.18408,-14.46513 -7.94575,-20.84262 -11.75163,-13.00764 -33.29481,-13.00764 -45.04644,0 -5.77792,6.39546 -7.93716,12.07422 -7.92503,20.84262 0.008,5.68775 0.5763,8.76857 2.35246,12.75 1.28814,2.8875 2.50562,5.25 2.70551,5.25 0.19989,0 1.06596,-1.68136 1.92459,-3.73635 z m 19.37926,-7.18816 c -7.1169,-2.24267 -10.91357,-7.5753 -10.91357,-15.32874 0,-5.40445 2.99709,-10.24488 7.9844,-12.89514 13.04373,-6.93145 26.87097,7.11419 20.40914,20.7315 -2.72709,5.74691 -11.32462,9.43204 -17.47997,7.49238 z M 12.013396,97.72034 c 3.487651,-8.34712 8.306616,-10.66856 14.052325,-6.76942 5.204007,3.53154 13.622727,3.53154 18.826734,0 5.802861,-3.93793 10.514497,-1.6071 14.189339,7.01942 l 1.698161,3.98635 2.589224,-5.5 c 2.071554,-4.40037 2.587156,-6.99949 2.57888,-13 -0.01209,-8.76777 -2.184078,-14.46513 -7.945755,-20.84262 -11.751621,-13.00764 -33.294811,-13.00764 -45.046432,0 -5.7779197,6.39547 -7.9371662,12.07423 -7.9250343,20.84262 0.00787,5.68776 0.5763006,8.76858 2.3524574,12.75 1.2881446,2.8875 2.5056266,5.25 2.7055169,5.25 0.19989,0 1.065952,-1.681356 1.924584,-3.73635 z M 31.39266,90.53218 c -7.116902,-2.24266 -10.913572,-7.5753 -10.913572,-15.32873 0,-5.40446 2.99709,-10.24489 7.984398,-12.89515 13.043732,-6.93144 26.870974,7.1142 20.40914,20.7315 -2.727087,5.74691 -11.324617,9.43204 -17.479966,7.49238 z M 255.01339,49.72034 c 3.48765,-8.34712 8.30661,-10.66856 14.05232,-6.76942 5.20401,3.53154 13.62273,3.53154 18.82674,0 5.80286,-3.93793 10.51449,-1.6071 14.18934,7.01942 l 1.69816,3.98635 2.58922,-5.5 c 2.07156,-4.40037 2.58716,-6.99949 2.57888,-13 -0.0121,-8.76777 -2.18408,-14.46513 -7.94575,-20.84262 -11.75163,-13.00764 -33.29481,-13.00764 -45.04644,0 -5.77792,6.39547 -7.93716,12.07423 -7.92503,20.84262 0.008,5.68776 0.5763,8.76858 2.35246,12.75 1.28814,2.8875 2.50562,5.25 2.70551,5.25 0.19989,0 1.06596,-1.68136 1.92459,-3.73635 z m 19.37926,-7.18816 c -7.1169,-2.24266 -10.91357,-7.5753 -10.91357,-15.32873 0,-5.40446 2.99709,-10.24489 7.9844,-12.89515 13.04373,-6.93144 26.87097,7.1142 20.40914,20.7315 -2.72709,5.74691 -11.32462,9.43204 -17.47997,7.49238 z"
     id="path148"
     inkscape:connector-curvature="0" />
</svg>
