<?xml version="1.0" encoding="UTF-8" standalone="no"?>
<!-- Created with Inkscape (http://www.inkscape.org/) -->

<svg
   xmlns:dc="http://purl.org/dc/elements/1.1/"
   xmlns:cc="http://creativecommons.org/ns#"
   xmlns:rdf="http://www.w3.org/1999/02/22-rdf-syntax-ns#"
   xmlns:svg="http://www.w3.org/2000/svg"
   xmlns="http://www.w3.org/2000/svg"
   xmlns:sodipodi="http://sodipodi.sourceforge.net/DTD/sodipodi-0.dtd"
   xmlns:inkscape="http://www.inkscape.org/namespaces/inkscape"
   version="1.1"
   id="svg10"
   width="458.15979"
   height="92.020309"
   viewBox="0 0 458.15979 92.020309"
   sodipodi:docname="block2.svg"
   inkscape:version="0.92.1 r15371">
  <metadata
     id="metadata16">
    <rdf:RDF>
      <cc:Work
         rdf:about="">
        <dc:format>image/svg+xml</dc:format>
        <dc:type
           rdf:resource="http://purl.org/dc/dcmitype/StillImage" />
        <dc:title></dc:title>
      </cc:Work>
    </rdf:RDF>
  </metadata>
  <defs
     id="defs14" />
  <sodipodi:namedview
     pagecolor="#ffffff"
     bordercolor="#666666"
     borderopacity="1"
     objecttolerance="10"
     gridtolerance="10"
     guidetolerance="10"
     inkscape:pageopacity="0"
     inkscape:pageshadow="2"
     inkscape:window-width="1920"
     inkscape:window-height="1017"
     id="namedview12"
     showgrid="false"
     fit-margin-top="0"
     fit-margin-left="0"
     fit-margin-right="0"
     fit-margin-bottom="0"
     inkscape:zoom="2.7249857"
     inkscape:cx="266.674"
     inkscape:cy="14.678982"
     inkscape:window-x="-8"
     inkscape:window-y="-8"
     inkscape:window-maximized="1"
     inkscape:current-layer="svg10" />
  <path
     style="fill:#ffffff"
     d="M 4.5228281,90.45559 C 0.6226505,88.42191 0.0336234,87.35228 0.015313,82.27031 L 0,78.02031 H 69.5 139 v 4.42857 c 0,4.73096 -1.54419,7.06743 -5.72028,8.65517 -1.36587,0.51931 -29.13363,0.91359 -64.09482,0.91009 C 15.381874,92.00914 7.1195879,91.80962 4.5228281,90.45559 Z M 76,84.02031 c 0,-0.56411 -2.833333,-1 -6.5,-1 -3.666667,0 -6.5,0.43589 -6.5,1 0,0.5641 2.833333,1 6.5,1 3.666667,0 6.5,-0.4359 6.5,-1 z m 118,4.2 c 0,-2.09 0.54,-4.34 1.2,-5 1.7284,-1.72841 95.8716,-1.72841 97.6,0 0.66,0.66 1.2,2.91 1.2,5 v 3.8 h -50 -50 z m 182.92308,0.87692 C 375.16091,87.33506 374,85.12017 374,83.52031 c 0,-1.59987 1.16091,-3.81476 2.92308,-5.57693 2.39962,-2.39962 2.60062,-2.92307 1.12244,-2.92307 -3.82855,0 -4.54362,-2.68617 -2.21237,-8.31075 l 2.16017,-5.2118 -5.49091,-25.48873 c -3.02,-14.0188 -5.69696,-26.03191 -5.9488,-26.6958 -0.28862,-0.76083 -3.30181,-1.31536 -8.15065,-1.5 -6.02791,-0.22953 -7.93081,-0.67165 -8.79274,-2.04292 -0.80012,-1.27294 -0.79979,-2.22707 10e-4,-3.5 0.91053,-1.447 2.87556,-1.79955 11.34889,-2.03614 11.16869,-0.31184 12.52682,0.17463 13.55486,4.85523 l 0.64394,2.93091 h 39.84912 c 34.89313,0 40.04455,0.19543 41.42054,1.57142 2.2007,2.2007 2.35331,37.53478 0.16994,39.34682 -1.04172,0.86455 -64.28907,9.08176 -69.90177,9.08176 -0.50246,0 -0.62888,1.13423 -0.28095,2.52051 0.34794,1.38629 0.15589,3.41129 -0.42677,4.5 -1.04531,1.95317 -0.64067,1.97949 30.44061,1.97949 30.47655,0 31.53478,0.065 32.57037,2 1.43988,2.69043 -0.35775,5.99021 -3.28518,6.0304 -1.98535,0.0273 -2.03351,0.13602 -0.4648,1.04971 2.67739,1.55943 4.88023,6.55276 4.15882,9.42707 -0.34848,1.38845 -1.76871,3.41733 -3.15608,4.50863 -8.29907,6.52805 -17.89438,-4.56157 -10.56567,-12.2111 l 2.68709,-2.80471 h -26.61017 -26.61016 l 2.92307,2.92307 C 389.83909,79.70555 391,81.92044 391,83.52031 c 0,3.508 -4.992,8.5 -8.5,8.5 -1.59987,0 -3.81475,-1.16091 -5.57692,-2.92308 z M 201,76.72031 c 0,-2.75789 1.73551,-4.7 4.2,-4.7 1.67179,0 1.8,-1.38889 1.8,-19.5 v -19.5 h 7 7 v 19.5 19.5 h 3 3 v -19.5 -19.5 h 7 7 v 19.5 19.5 h 3 3 v -19.5 -19.5 h 7 7 v 19.5 19.5 h 3 3 v -19.5 -19.5 h 7 7 v 19.5 c 0,18.11111 0.12821,19.5 1.8,19.5 2.46449,0 4.2,1.94211 4.2,4.7 v 2.3 H 244 201 Z M 26.312913,72.91783 c -1.752897,-0.50716 -4.115397,-2.10226 -5.25,-3.54467 C 19.083676,66.85697 19,65.53983 19,36.90122 V 7.05186 L 21.917971,3.78608 24.835942,0.52031 H 69.5 114.16406 L 117.08203,3.78608 120,7.05186 v 29.84936 c 0,28.55643 -0.0886,29.96201 -2.04549,32.44978 -1.12501,1.43023 -3.71251,3.06341 -5.75,3.62928 -4.65137,1.29185 -81.403587,1.23604 -85.891597,-0.0625 z M 110.76607,36.77031 110.5,9.52031 h -41 -41 l -0.266072,27.25 -0.266072,27.25 H 69.5 111.03214 Z M 177,55.5884 v -3.56809 h -18 -18 v -3.5 -3.5 h 17.93963 17.93964 l 0.31036,-3.75 0.31037,-3.75 5.77899,5.42247 5.779,5.42248 -3.279,3.4145 c -1.80344,1.87797 -4.51649,4.306 -6.02899,5.39562 L 177,59.15649 Z m 164,0 v -3.56809 h -18 -18 v -3.5 -3.5 h 17.93963 17.93964 l 0.31036,-3.75 0.31037,-3.75 5.77899,5.42247 5.779,5.42248 -3.279,3.4145 c -1.80344,1.87797 -4.51649,4.306 -6.02899,5.39562 L 341,59.15649 Z M 202,28.02031 c -1.1295,-1.1295 -3.33333,-2 -5.06336,-2 -2.85128,0 -3.04166,-0.22404 -2.75,-3.23606 L 194.5,19.54819 219.25,9.7741 244,0 l 24.75,9.7741 24.75,9.77409 0.31336,3.23606 c 0.29166,3.01202 0.10128,3.23606 -2.75,3.23606 -1.73003,0 -3.93386,0.8705 -5.06336,2 -1.93333,1.93333 -3.33333,2 -42,2 -38.66667,0 -40.06667,-0.0667 -42,-2 z"
     id="path36"
     inkscape:connector-curvature="0" />
</svg>
