<?xml version="1.0" encoding="UTF-8" standalone="no"?>
<!-- Created with Inkscape (http://www.inkscape.org/) -->

<svg
   xmlns:dc="http://purl.org/dc/elements/1.1/"
   xmlns:cc="http://creativecommons.org/ns#"
   xmlns:rdf="http://www.w3.org/1999/02/22-rdf-syntax-ns#"
   xmlns:svg="http://www.w3.org/2000/svg"
   xmlns="http://www.w3.org/2000/svg"
   xmlns:sodipodi="http://sodipodi.sourceforge.net/DTD/sodipodi-0.dtd"
   xmlns:inkscape="http://www.inkscape.org/namespaces/inkscape"
   version="1.1"
   id="svg3690"
   width="328.96762"
   height="74.675789"
   viewBox="0 0 328.96762 74.675789"
   sodipodi:docname="logoedited.svg"
   inkscape:version="0.92.1 r15371">
  <metadata
     id="metadata3696">
    <rdf:RDF>
      <cc:Work
         rdf:about="">
        <dc:format>image/svg+xml</dc:format>
        <dc:type
           rdf:resource="http://purl.org/dc/dcmitype/StillImage" />
        <dc:title></dc:title>
      </cc:Work>
    </rdf:RDF>
  </metadata>
  <defs
     id="defs3694" />
  <sodipodi:namedview
     pagecolor="#ffffff"
     bordercolor="#666666"
     borderopacity="1"
     objecttolerance="10"
     gridtolerance="10"
     guidetolerance="10"
     inkscape:pageopacity="0"
     inkscape:pageshadow="2"
     inkscape:window-width="1920"
     inkscape:window-height="1017"
     id="namedview3692"
     showgrid="false"
     fit-margin-top="0"
     fit-margin-left="0"
     fit-margin-right="0"
     fit-margin-bottom="0"
     inkscape:zoom="2.2820264"
     inkscape:cx="172.83466"
     inkscape:cy="32.837243"
     inkscape:window-x="-8"
     inkscape:window-y="-8"
     inkscape:window-maximized="1"
     inkscape:current-layer="g3712" />
  <g
     id="g3712"
     transform="translate(-13.432393,-5.3790268)">
    <path
       style="fill:#feca03;stroke-width:0.31999999"
       d="m 221.01979,70.920409 c -0.0928,-0.241776 -0.72019,-0.538925 -1.39424,-0.66033 -3.96859,-0.71479 -8.88069,-3.567465 -12.72193,-7.388189 -3.81476,-3.794378 -6.68115,-8.725763 -7.4037,-12.737437 -0.1214,-0.674051 -0.41855,-1.301456 -0.66033,-1.394237 -0.64581,-0.247821 -0.64581,-11.792608 0,-12.040429 0.24178,-0.09278 0.53893,-0.720186 0.66033,-1.394237 0.72255,-4.011674 3.58894,-8.943059 7.4037,-12.737438 3.84124,-3.820723 8.75334,-6.673398 12.72193,-7.388188 0.67405,-0.121404 1.30145,-0.418553 1.39424,-0.66033 0.24782,-0.645812 11.7926,-0.645812 12.04042,0 0.0928,0.241777 0.72019,0.538926 1.39424,0.66033 3.96859,0.71479 8.88069,3.567465 12.72193,7.388188 3.78901,3.768769 6.26047,7.991542 7.53353,12.871889 0.19511,0.748 0.49321,1.36 0.66242,1.36 0.1858,0 0.30767,2.344887 0.30767,5.920001 0,3.575113 -0.12187,5.92 -0.30767,5.92 -0.16921,0 -0.46731,0.612 -0.66242,1.36 -2.21184,8.479194 -8.88336,16.031277 -16.99146,19.234116 -1.12115,0.442873 -2.58995,0.904556 -3.264,1.025961 -0.67405,0.121405 -1.30145,0.418554 -1.39424,0.66033 -0.13454,0.350614 -1.3531,0.439594 -6.02021,0.439594 -4.66711,0 -5.88567,-0.08898 -6.02021,-0.439594 z m 11.68524,-5.955722 c 8.04155,-2.106282 14.54481,-8.603488 16.55341,-16.538 3.08651,-12.1925 -4.30362,-24.744872 -16.43871,-27.921678 -3.44921,-0.902956 -8.11025,-0.902956 -11.55946,0 -7.93863,2.078227 -14.43805,8.605171 -16.43871,16.508308 -3.08144,12.172474 4.26248,24.666954 16.41956,27.935216 3.17425,0.853354 8.24031,0.860493 11.46391,0.01616 z M 221.824,57.216002 c -0.2112,-0.2112 -0.384,-1.1184 -0.384,-2.016 0,-0.8976 -0.1728,-1.8048 -0.384,-2.016 -0.22199,-0.221991 -1.28551,-0.384 -2.52082,-0.384 -2.50234,0 -3.1557,-0.456157 -2.66286,-1.85912 0.21211,-0.603805 0.67694,-0.983885 1.55661,-1.272787 2.15873,-0.708983 2.09107,-0.463786 2.09107,-7.577681 0,-6.068349 -0.0399,-6.507338 -0.64105,-7.05136 -0.35257,-0.319078 -1.18057,-0.667101 -1.84,-0.773386 -1.01829,-0.164128 -1.21449,-0.328185 -1.30207,-1.088806 -0.1707,-1.482417 0.41007,-1.848485 2.80222,-1.766283 1.1672,0.04011 2.2974,-0.03536 2.51154,-0.167712 0.22374,-0.138276 0.39144,-0.947236 0.39426,-1.901751 0.007,-2.249803 0.62116,-2.980194 2.0751,-2.466374 0.5117,0.180835 0.67207,0.598415 0.8,2.083081 0.17841,2.070553 0.82393,2.845027 1.84,2.207583 0.39749,-0.249371 0.58697,-0.85249 0.65294,-2.078363 0.0617,-1.145659 0.27075,-1.861696 0.62116,-2.127042 1.30396,-0.987432 2.35747,1.5e-4 2.28177,2.138984 -0.0684,1.931295 0.0932,2.170529 1.73764,2.573898 2.49173,0.611185 3.99696,1.581419 4.69704,3.027608 0.86029,1.777104 0.81917,2.981187 -0.15055,4.40825 -1.05884,1.558227 -1.0108,2.02719 0.29536,2.883401 1.55564,1.019744 2.10464,2.123975 2.10464,4.233124 0,2.09448 -0.49877,3.223475 -2.01046,4.550752 -1.00637,0.883606 -1.60017,1.112233 -5.26954,2.028902 -1.44145,0.360096 -1.50696,0.486147 -1.37598,2.647655 0.0854,1.408777 -0.40446,2.147427 -1.42402,2.147427 -1.03879,0 -1.38849,-0.591072 -1.50084,-2.536742 -0.18319,-3.172551 -2.25513,-3.172551 -2.43832,0 -0.0545,0.944537 -0.25217,1.901705 -0.43918,2.127043 -0.42854,0.516358 -1.61263,0.530729 -2.11766,0.0257 z m 8.78823,-8.360272 c 1.51845,-0.785216 2.02777,-1.433952 2.02777,-2.582804 0,-1.79238 -1.63643,-2.775673 -5.35027,-3.214864 -2.38544,-0.282096 -2.96973,0.354727 -2.96973,3.236743 0,2.983088 0.43901,3.425802 3.20255,3.229594 1.14541,-0.08132 2.53576,-0.382224 3.08968,-0.668669 z m -1.59306,-8.877044 c 4.14362,-1.569977 2.39016,-5.418685 -2.46874,-5.418685 -1.88081,0 -2.23043,0.451434 -2.23043,2.88 0,2.428567 0.34962,2.88 2.23043,2.88 0.86235,0 1.97328,-0.153593 2.46874,-0.341315 z"
       id="path3718"
       inkscape:connector-curvature="0" />
    <path
       style="fill:#fea400;stroke-width:0.31999999"
       d="m 27.250526,78.400003 c 0,-0.44 0.07263,-0.62 0.161404,-0.4 0.08877,0.22 0.08877,0.58 0,0.8 -0.08877,0.22 -0.161404,0.04 -0.161404,-0.4 z M 166.46738,71.50783 c -0.34878,-0.395459 -0.29096,-0.467827 0.37383,-0.467827 0.99111,0 1.79879,0.302739 1.79879,0.674236 0,0.465351 -1.72465,0.301501 -2.17262,-0.206409 z M 180.23988,71.6 c 0.0752,-0.225639 0.70164,-0.412826 1.43722,-0.429424 0.96732,-0.02182 1.26145,0.08145 1.13921,0.4 -0.2186,0.569664 -2.76604,0.598758 -2.57643,0.02941 z M 80.16,70.400002 C 79.738003,70.218665 79.683501,70.118994 80,70.107394 c 0.264,-0.0097 0.696,0.121997 0.96,0.292608 0.58495,0.378023 0.07971,0.378023 -0.8,0 z M 91.6,70.37437 c 0.525731,-0.306208 0.564787,-2.063164 0.63824,-28.710269 L 92.316477,13.28 l 0.08351,28.285109 c 0.08407,28.47738 0.0602,29.173732 -0.999168,29.145162 C 91.202368,70.704927 91.292,70.553766 91.6,70.37437 Z m 36.4,0.219869 c 0,-0.06917 0.22348,-0.21152 0.49662,-0.316336 0.28478,-0.109277 0.41322,-0.05563 0.30111,0.125763 C 128.60981,70.707734 128,70.85341 128,70.594239 Z m 35.02116,-0.371891 c -0.5857,-0.469238 -0.57549,-0.475901 0.17884,-0.116653 0.97953,0.466499 1.16107,0.614307 0.7545,0.614307 -0.1717,0 -0.5917,-0.223942 -0.93334,-0.497654 z M 185.22,70.501407 c 0.231,-0.09244 0.507,-0.08107 0.61333,0.02525 0.10634,0.106333 -0.0827,0.181965 -0.42,0.168071 -0.37278,-0.01536 -0.4486,-0.09118 -0.19333,-0.193332 z m 79.13744,-0.216297 c -0.26331,-0.317268 -0.33835,-8.085188 -0.27743,-28.720001 l 0.0835,-28.285109 0.0782,28.384101 c 0.0734,26.647105 0.11251,28.404061 0.63824,28.710269 0.308,0.179396 0.39763,0.330551 0.19918,0.335901 -0.19845,0.0053 -0.52323,-0.185971 -0.72174,-0.425161 z M 275.76,70.133337 c 0.308,-0.322669 0.61652,-0.542147 0.6856,-0.487735 0.18903,0.1489 -0.64204,1.0744 -0.96478,1.0744 -0.15445,0 -0.0288,-0.264 0.27918,-0.586665 z m 65.12,0.241033 c 0.52624,-0.306499 0.56224,-2.038035 0.59712,-28.710269 C 341.4976,26.052845 341.5801,13.532 341.66058,13.84 c 0.0805,0.308 0.2798,0.560001 0.44288,0.560001 0.1631,0 0.29654,0.216 0.29654,0.48 0,0.264 -0.144,0.48 -0.32,0.48 -0.21078,0 -0.32,9.12 -0.32,26.72 0,17.600001 0.10922,26.720001 0.32,26.720001 0.176,0 0.32,0.156919 0.32,0.348708 0,0.40872 -1.29466,1.549584 -1.76,1.550915 -0.176,6.4e-4 -0.068,-0.145859 0.24,-0.325255 z M 27.225263,69.669692 C 27.211369,69.356018 26.876,68.969148 26.48,68.809974 25.992763,68.61413 25.928371,68.514012 26.280818,68.500287 c 0.657991,-0.02563 1.352209,0.78744 1.134698,1.328957 -0.102134,0.254272 -0.174614,0.193488 -0.190253,-0.159552 z m 263.385257,-0.54969 c 0,-0.44 0.0726,-0.62 0.16141,-0.4 0.0888,0.22 0.0888,0.58 0,0.8 -0.0888,0.22 -0.16141,0.04 -0.16141,-0.4 z m -102.10385,0.22945 c 0.0733,-0.0498 0.42133,-0.301802 0.77333,-0.56 0.592,-0.434243 0.60706,-0.427453 0.20082,0.09055 -0.24155,0.308 -0.58955,0.56 -0.77334,0.56 -0.18378,0 -0.27415,-0.04075 -0.20081,-0.09055 z m 87.80624,-27.269451 c 2e-5,-14.96 0.0392,-21.033203 0.087,-13.496006 0.0478,7.537197 0.0478,19.777197 -4e-5,27.200001 -0.0479,7.422803 -0.087,1.256006 -0.087,-13.703995 z M 14.64,68.588073 c 0.22,-0.08877 0.58,-0.08877 0.8,0 0.22,0.08877 0.04,0.161405 -0.4,0.161405 -0.44,0 -0.62,-0.07263 -0.4,-0.161405 z m 21.46,-0.0067 c 0.230998,-0.09244 0.506998,-0.08107 0.613334,0.02525 0.106333,0.106333 -0.08267,0.181965 -0.42,0.16807 C 35.92055,68.759375 35.844726,68.683554 36.1,68.581404 Z m 2.24,0 c 0.230998,-0.09244 0.506998,-0.08107 0.613334,0.02525 0.106333,0.106333 -0.08267,0.181965 -0.42,0.16807 C 38.16055,68.759375 38.084726,68.683554 38.34,68.581404 Z m 10.863731,-0.327728 c 0.398051,-0.07654 0.974051,-0.07363 1.28,0.0065 0.305949,0.08009 -0.01974,0.14272 -0.723731,0.139168 -0.704,-0.0036 -0.95432,-0.06909 -0.556269,-0.145626 z M 301.58861,52.320002 c -6e-5,-8.976 0.0409,-12.694065 0.0911,-8.262368 0.0502,4.431699 0.0502,11.775699 10e-5,16.32 -0.0501,4.544304 -0.0911,0.918368 -0.0912,-8.057632 z m -248.8747,15.6301 c 0.21665,-0.08765 0.64865,-0.09299 0.96,-0.01187 0.311351,0.08113 0.13409,0.152851 -0.39391,0.159372 -0.528,0.0065 -0.782739,-0.05986 -0.56609,-0.147516 z M 54.98,67.621407 c 0.230998,-0.09244 0.506998,-0.08107 0.613334,0.02525 0.106333,0.106333 -0.08267,0.181965 -0.42,0.168071 C 54.80055,67.799366 54.724726,67.723545 54.98,67.621394 Z m 102.46,-0.581405 c -0.2191,-0.264 -0.32636,-0.48 -0.23836,-0.48 0.088,0 0.33926,0.216 0.55836,0.48 0.2191,0.264 0.32636,0.48 0.23836,0.48 -0.088,0 -0.33926,-0.216 -0.55836,-0.48 z m 32.1197,-2.88 c 6.4e-4,-1.936 0.0534,-2.686742 0.11713,-1.668317 0.0637,1.018426 0.0631,2.602426 -0.001,3.520001 -0.0644,0.917574 -0.11654,0.08432 -0.11582,-1.851684 z m 133.82088,1.853802 c -0.17367,-0.456064 -0.1369,-0.492819 0.17913,-0.179136 0.21869,0.217069 0.31703,0.475277 0.2185,0.573802 -0.0985,0.09852 -0.27747,-0.07908 -0.39763,-0.394666 z M 221.24112,64.948533 c -7.95062,-2.137414 -14.42817,-8.655312 -16.41956,-16.521846 -2.61983,-10.34899 2.23783,-21.131495 11.77759,-26.142611 6.25351,-3.284896 14.62819,-3.284896 20.8817,0 7.73868,4.06503 12.43915,11.787308 12.43915,20.435926 0,10.497661 -7.0255,19.575811 -17.21497,22.244685 -3.2236,0.844339 -8.28966,0.8372 -11.46391,-0.01616 z m 2.70054,-7.75823 c 0.18701,-0.225338 0.38464,-1.182506 0.43918,-2.127043 0.18319,-3.172551 2.25513,-3.172551 2.43832,0 0.11235,1.94567 0.46205,2.536742 1.50084,2.536742 1.01956,0 1.50938,-0.73865 1.42402,-2.147427 -0.13098,-2.161508 -0.0655,-2.287559 1.37598,-2.647655 3.66937,-0.916669 4.26317,-1.145296 5.26954,-2.028902 1.51169,-1.327277 2.01046,-2.456272 2.01046,-4.550752 0,-2.109149 -0.549,-3.21338 -2.10464,-4.233124 -1.30616,-0.856211 -1.3542,-1.325174 -0.29536,-2.883401 0.96972,-1.427063 1.01084,-2.631146 0.15055,-4.40825 -0.70008,-1.446189 -2.20531,-2.416423 -4.69704,-3.027608 -1.64449,-0.403369 -1.806,-0.642603 -1.73764,-2.573898 0.0757,-2.138834 -0.97781,-3.126416 -2.28177,-2.138984 -0.35041,0.265346 -0.55951,0.981383 -0.62116,2.127042 -0.066,1.225873 -0.25545,1.828992 -0.65294,2.078363 -1.01607,0.637444 -1.66159,-0.13703 -1.84,-2.207583 -0.12793,-1.484666 -0.2883,-1.902246 -0.8,-2.083081 -1.45394,-0.51382 -2.06846,0.216571 -2.0751,2.466374 -0.003,0.954515 -0.17052,1.763475 -0.39426,1.901751 -0.21414,0.13235 -1.34434,0.207821 -2.51154,0.167712 -2.39215,-0.0822 -2.97292,0.283866 -2.80222,1.766283 0.0876,0.760621 0.28378,0.924678 1.30207,1.088806 0.65943,0.106285 1.48743,0.454308 1.84,0.773386 0.60114,0.544022 0.64105,0.983011 0.64105,7.05136 0,7.113895 0.0677,6.868698 -2.09107,7.577681 -0.87967,0.288902 -1.3445,0.668982 -1.55661,1.272787 -0.49284,1.402963 0.16052,1.85912 2.66286,1.85912 1.23531,0 2.29883,0.162009 2.52082,0.384 0.2112,0.2112 0.384,1.1184 0.384,2.016 0,0.8976 0.1728,1.8048 0.384,2.016 0.50503,0.50503 1.68912,0.490659 2.11766,-0.0257 z m 0.93834,-8.13937 c -0.41528,-0.460758 -0.56,-1.173011 -0.56,-2.756128 0,-2.882016 0.58429,-3.518839 2.96973,-3.236743 3.71384,0.439191 5.35027,1.422484 5.35027,3.214864 0,1.823143 -1.88704,3.022116 -5.11745,3.251473 -1.77119,0.125753 -2.16627,0.05497 -2.64255,-0.473466 z m -0.22874,-9.349895 C 224.46907,39.360609 224.32,38.343144 224.32,37.440001 c 0,-2.428566 0.34962,-2.88 2.23043,-2.88 0.86235,0 1.97328,0.153594 2.46874,0.341315 4.14362,1.569978 2.39016,5.418685 -2.46874,5.418685 -1.22264,0 -1.64086,-0.1363 -1.89917,-0.618963 z M 61.76,65.159183 c 0,-0.06645 0.252,-0.318448 0.56,-0.56 0.507539,-0.398038 0.518858,-0.38672 0.120819,0.120819 C 62.022781,65.253042 61.76,65.422556 61.76,65.159183 Z M 13.44,64.617145 c 0,-0.18857 0.216,-0.558858 0.48,-0.822858 0.498391,-0.49839 0.621273,-0.214781 0.285764,0.659542 C 13.986634,65.024873 13.44,65.141455 13.44,64.617145 Z M 64,63.200002 c 0.59705,-0.616 1.157546,-1.12 1.245546,-1.12 0.088,0 -0.328496,0.504 -0.925546,1.12 -0.59705,0.616 -1.157546,1.12 -1.245546,1.12 -0.088,0 0.328496,-0.504 0.925546,-1.12 z m 89.92,0.32 c -0.2191,-0.264 -0.32636,-0.48 -0.23836,-0.48 0.088,0 0.33926,0.216 0.55836,0.48 0.2191,0.264 0.32636,0.48 0.23836,0.48 -0.088,0 -0.33926,-0.216 -0.55836,-0.48 z M 14.425263,62.213337 c 0.01535,-0.372784 0.09118,-0.448608 0.193333,-0.193335 0.09244,0.230999 0.08107,0.506999 -0.02526,0.613335 -0.106333,0.106332 -0.181965,-0.08267 -0.16807,-0.42 z M 173.52,61.203525 c 1.012,-0.0635 2.668,-0.0635 3.68,0 1.012,0.0635 0.184,0.115463 -1.84,0.115463 -2.024,0 -2.852,-0.05196 -1.84,-0.115463 z M 65.6,60.999183 c 0,-0.06645 0.252,-0.318448 0.56,-0.56 0.507539,-0.398038 0.518858,-0.38672 0.120819,0.120819 C 65.862781,61.093042 65.6,61.262556 65.6,60.999183 Z m 103.68,-0.533802 c -0.35055,-0.237219 -0.22109,-0.266905 0.48,-0.110083 1.17662,0.263191 1.43204,0.446346 0.61333,0.439805 -0.33733,-0.0026 -0.82933,-0.151069 -1.09333,-0.329722 z m 11.43391,0.12472 c 0.21665,-0.08765 0.64865,-0.09299 0.96,-0.01187 0.31135,0.08113 0.13409,0.152852 -0.39391,0.159373 -0.528,0.0065 -0.78274,-0.05986 -0.56609,-0.147517 z M 36.88,60.244789 c 0.836,-0.06592 2.204,-0.06592 3.04,0 0.836,0.06592 0.152,0.119853 -1.52,0.119853 -1.672,0 -2.356,-0.05393 -1.52,-0.119853 z m 7.19391,-0.294688 c 0.21665,-0.08765 0.64865,-0.09299 0.96,-0.01187 0.311351,0.08113 0.13409,0.152852 -0.39391,0.159373 -0.528,0.0065 -0.782739,-0.05986 -0.56609,-0.147517 z M 183.94,59.941397 c 0.231,-0.09244 0.507,-0.08107 0.61333,0.02525 0.10634,0.106333 -0.0827,0.181965 -0.42,0.168071 -0.37278,-0.01536 -0.4486,-0.09118 -0.19333,-0.193331 z m 1.6,-0.32 c 0.231,-0.09244 0.507,-0.08107 0.61333,0.02525 0.10634,0.106333 -0.0827,0.181965 -0.42,0.168071 -0.37278,-0.01536 -0.4486,-0.09118 -0.19333,-0.193331 z M 34.695923,52.800002 c 0,-3.784 0.04629,-5.332 0.102864,-3.44 0.05658,1.892 0.05658,4.988 0,6.88 -0.05657,1.892 -0.102864,0.344 -0.102864,-3.44 z m 132.024077,6.24 c -0.2191,-0.264 -0.32636,-0.48 -0.23836,-0.48 0.088,0 0.33926,0.216 0.55836,0.48 0.2191,0.264 0.32636,0.48 0.23836,0.48 -0.088,0 -0.33926,-0.216 -0.55836,-0.48 z m 19.84,0.354237 c 0,-0.06917 0.22348,-0.21152 0.49662,-0.316336 0.28478,-0.109277 0.41322,-0.05563 0.30111,0.125763 -0.18792,0.304067 -0.79773,0.449744 -0.79773,0.190573 z m 2.704,-0.163178 c -0.1672,-0.158915 -0.592,-0.358211 -0.944,-0.442877 -0.60708,-0.146022 -0.60498,-0.155849 0.0408,-0.191062 0.37445,-0.02042 0.86008,0.17888 1.07918,0.44288 0.4344,0.523418 0.31269,0.655539 -0.176,0.191059 z M 50.266666,58.469452 C 50.34,58.41965 50.688,58.16765 51.04,57.909452 c 0.592003,-0.434244 0.607062,-0.427453 0.200819,0.09055 -0.241552,0.308 -0.589552,0.56 -0.773334,0.56 -0.183783,0 -0.274151,-0.04075 -0.200819,-0.09055 z m 114.982934,-0.62945 -0.6096,-0.72 0.72,0.609597 c 0.67662,0.57287 0.86568,0.830403 0.6096,0.830403 -0.0607,0 -0.38473,-0.324 -0.72,-0.72 z M 22.548296,42.560001 c 0,-8.712 0.04115,-12.276 0.09144,-7.92 0.05029,4.356 0.05029,11.484001 0,15.840001 -0.05029,4.356 -0.09144,0.792 -0.09144,-7.920001 z M 67.273261,57.54022 C 67.43271,57.061871 68.16,56.798495 68.16,57.2191 c 0,0.171836 -0.228032,0.399932 -0.506739,0.506883 -0.311651,0.119593 -0.457946,0.04808 -0.38,-0.185763 z M 52.32,56.960002 c 0.318557,-0.352 0.651194,-0.64 0.739194,-0.64 0.088,0 -0.100637,0.288 -0.419194,0.64 -0.318557,0.352 -0.651194,0.64 -0.739194,0.64 -0.088,0 0.100637,-0.288 0.419194,-0.64 z m 277.58278,-2.796963 c -0.60652,-0.65833 -0.7335,-0.87433 -0.28214,-0.48 1.07501,0.939222 1.19478,0.910515 1.34787,-0.323037 0.0992,-0.79937 0.14093,-0.688311 0.18029,0.48 0.0282,0.836 0.007,1.52 -0.046,1.52 -0.0535,0 -0.59347,-0.538634 -1.2,-1.196963 z m -276.117516,0.0503 c 0.01536,-0.372784 0.09118,-0.448608 0.193331,-0.193334 0.09244,0.230998 0.08107,0.506998 -0.02525,0.613334 -0.106336,0.106333 -0.181965,-0.08267 -0.16807,-0.42 z m 108.921576,0.165376 c -0.11601,-0.187708 -0.1423,-0.40992 -0.0584,-0.493801 0.0839,-0.08388 0.23777,0.0697 0.342,0.341289 0.21637,0.563876 0.032,0.66306 -0.28359,0.152512 z M 54.105264,52.933336 c 0.01536,-0.372784 0.09118,-0.448608 0.193331,-0.193334 0.09244,0.230998 0.08107,0.506998 -0.02525,0.613334 -0.106336,0.106333 -0.181965,-0.08267 -0.16807,-0.42 z M 328.50058,52.253803 c -0.17367,-0.456064 -0.1369,-0.492819 0.17913,-0.179136 0.21869,0.217069 0.31703,0.475277 0.2185,0.573802 -0.0985,0.09853 -0.27747,-0.07907 -0.39763,-0.394666 z m 2.42995,-1.053801 c 0,-0.44 0.0726,-0.62 0.16141,-0.4 0.0888,0.22 0.0888,0.58 0,0.8 -0.0888,0.22 -0.16141,0.04 -0.16141,-0.4 z m -182.06815,-0.48 c 0.007,-0.528 0.0782,-0.705261 0.15938,-0.393911 0.0811,0.311351 0.0758,0.743351 -0.0119,0.96 -0.0876,0.21665 -0.15403,-0.03809 -0.14751,-0.566089 z m 12.44288,-0.666666 c 0.0154,-0.372784 0.0912,-0.448608 0.19334,-0.193334 0.0924,0.230998 0.0811,0.506998 -0.0252,0.613334 -0.10634,0.106333 -0.18197,-0.08267 -0.16807,-0.42 z m -109.169481,-1.653334 -0.775779,-0.88 0.88,0.775779 c 0.484,0.426682 0.88,0.822682 0.88,0.88 0,0.25097 -0.259136,0.04671 -0.984221,-0.775779 z m 108.886601,-0.24 c 0.007,-0.528 0.0782,-0.705261 0.15938,-0.393911 0.0811,0.311351 0.0758,0.743351 -0.0119,0.96 -0.0876,0.21665 -0.15403,-0.03809 -0.14751,-0.566089 z m -12.51712,-0.02666 c 0.0154,-0.372784 0.0912,-0.448608 0.19334,-0.193335 0.0924,0.230999 0.0811,0.506999 -0.0252,0.613335 -0.10634,0.106333 -0.18197,-0.08267 -0.16807,-0.42 z M 67.362266,47.363675 c -0.112109,-0.181395 0.01635,-0.23504 0.301113,-0.125763 0.554375,0.212733 0.655805,0.442099 0.195507,0.442099 -0.165612,0 -0.389094,-0.142352 -0.49662,-0.316336 z M 330.62237,46.560002 c 0.006,-0.528 0.0782,-0.705261 0.15939,-0.393911 0.0811,0.311351 0.0758,0.743351 -0.0118,0.96 -0.0876,0.21665 -0.15402,-0.03809 -0.14752,-0.566089 z m -182.33905,-3.68 c 0,-2.200001 0.0511,-3.100001 0.11361,-2.000001 0.0625,1.1 0.0625,2.900001 0,4.000001 -0.0625,1.1 -0.11361,0.2 -0.11361,-2 z m 163.54352,3.17871 c -0.11601,-0.187709 -0.1423,-0.40992 -0.0584,-0.493802 0.0839,-0.08388 0.23777,0.0697 0.342,0.34129 0.21637,0.563875 0.0319,0.663059 -0.28359,0.152512 z m 12.83374,-0.524909 c -0.17367,-0.456064 -0.1369,-0.492819 0.17913,-0.179136 0.21869,0.217069 0.31703,0.475277 0.2185,0.573802 -0.0985,0.09853 -0.27747,-0.07908 -0.39763,-0.394666 z M 45.7,45.541419 c 0.230998,-0.09244 0.506998,-0.08107 0.613334,0.02525 0.106333,0.106333 -0.08267,0.181965 -0.42,0.168071 C 45.52055,45.719378 45.444726,45.643557 45.7,45.541406 Z m -8.327459,-0.338656 c 1.106896,-0.06266 2.834896,-0.06215 3.84,0.0013 1.005101,0.0633 0.09946,0.11457 -2.012541,0.113939 -2.112,-6.4e-4 -2.934358,-0.05242 -1.827459,-0.115088 z M 330.70762,30.400001 c 0,-8.184 0.0414,-11.532 0.0921,-7.44 0.0507,4.092 0.0507,10.788 0,14.88 -0.0507,4.092 -0.0921,0.744 -0.0921,-7.44 z M 64.942774,43.600002 63.84,42.400001 l 1.2,1.102775 c 1.116934,1.026435 1.347133,1.297226 1.102774,1.297226 -0.05348,0 -0.593475,-0.54 -1.2,-1.2 z m 245.604066,0.21871 c -0.11601,-0.187709 -0.1423,-0.40992 -0.0584,-0.493802 0.0839,-0.08388 0.23777,0.0697 0.342,0.34129 0.21637,0.563875 0.0319,0.663059 -0.28359,0.152512 z m 12.83374,-0.524909 c -0.17367,-0.456064 -0.1369,-0.492819 0.17913,-0.179136 0.21869,0.217069 0.31703,0.475277 0.2185,0.573802 -0.0985,0.09853 -0.27747,-0.07907 -0.39763,-0.394666 z M 63.04,42.080001 c -0.219101,-0.264 -0.326365,-0.48 -0.238365,-0.48 0.088,0 0.339264,0.216 0.558365,0.48 0.219101,0.264 0.326365,0.48 0.238365,0.48 -0.088,0 -0.339264,-0.216 -0.558365,-0.48 z m 97.98238,-4.16 c 0.007,-0.528 0.0782,-0.70526 0.15938,-0.39391 0.0811,0.31135 0.0758,0.74335 -0.0119,0.96 -0.0876,0.21665 -0.15403,-0.03809 -0.14751,-0.56609 z M 40.0844,38.170376 c 0.486419,-0.07355 1.206419,-0.07159 1.6,0.0044 0.393581,0.07596 -0.0044,0.136134 -0.8844,0.133734 -0.88,-0.0026 -1.202019,-0.06455 -0.7156,-0.138102 z M 60.96,37.760001 c 0.318557,-0.352 0.651194,-0.64 0.739194,-0.64 0.088,0 -0.100637,0.288 -0.419194,0.64 -0.318557,0.352 -0.651194,0.64 -0.739194,0.64 -0.088,0 0.100637,-0.288 0.419194,-0.64 z m 87.54526,0.133335 c 0.0154,-0.372784 0.0912,-0.448608 0.19334,-0.193335 0.0924,0.230999 0.0811,0.506999 -0.0252,0.613335 -0.10634,0.106333 -0.18197,-0.08267 -0.16807,-0.42 z M 42.82,37.8614 c 0.230998,-0.09244 0.506998,-0.08107 0.613334,0.02525 0.106333,0.106336 -0.08267,0.181965 -0.42,0.16807 C 42.64055,38.039358 42.564726,37.963537 42.82,37.861387 Z m 277.00684,-0.442695 c -0.11601,-0.187708 -0.1423,-0.40992 -0.0584,-0.493801 0.0839,-0.08388 0.23778,0.0697 0.342,0.341289 0.21639,0.563876 0.032,0.66306 -0.28359,0.152512 z M 34.693386,31.520001 c -3.08e-4,-3.344 0.04686,-4.75548 0.104816,-3.136621 0.05795,1.618858 0.05821,4.354858 6.4e-4,6.08 -0.05765,1.725143 -0.105069,0.400621 -0.105376,-2.943379 z m 114.131874,3.813335 c 0.0154,-0.372784 0.0912,-0.448608 0.19334,-0.193335 0.0924,0.230999 0.0811,0.506999 -0.0252,0.613335 -0.10634,0.106332 -0.18197,-0.08267 -0.16807,-0.42 z m 12.8,-0.32 c 0.0154,-0.372784 0.0912,-0.448608 0.19334,-0.193335 0.0924,0.230999 0.0811,0.506999 -0.0252,0.613335 -0.10634,0.106332 -0.18197,-0.08267 -0.16807,-0.42 z m 139.5939,-1.573335 c 0.002,-1.056 0.0615,-1.449421 0.13275,-0.874269 0.0712,0.575152 0.0697,1.439152 -0.003,1.92 -0.073,0.480848 -0.13129,0.01027 -0.12949,-1.045731 z m -238.169358,1.28 c 0,-0.176 0.139587,-0.536 0.310198,-0.8 0.170611,-0.264 0.310198,-0.336 0.310198,-0.16 0,0.176 -0.139587,0.536 -0.310198,0.8 -0.170611,0.264 -0.310198,0.336 -0.310198,0.16 z M 304.35212,32.865448 c -0.40477,-0.67402 -0.39795,-0.680839 0.15307,-0.153066 0.31719,0.303811 0.50783,0.621261 0.42365,0.705446 -0.0842,0.08419 -0.34371,-0.164384 -0.57672,-0.55238 z M 64.087155,30.080001 c 0,-0.792 0.06241,-1.116 0.138679,-0.72 0.07627,0.396 0.07627,1.044 0,1.44 -0.07627,0.396 -0.138679,0.072 -0.138679,-0.72 z M 315.38057,29.533802 c -0.17365,-0.456063 -0.1369,-0.49282 0.17914,-0.179134 0.21869,0.217066 0.31701,0.475277 0.21849,0.573801 -0.0985,0.09852 -0.27746,-0.07908 -0.39763,-0.394667 z m -13.27881,-0.653801 c -0.28908,-0.490489 -0.37352,-0.500419 -0.68027,-0.08 -0.28581,0.391735 -0.32735,0.395413 -0.22585,0.02 0.19874,-0.735142 0.8108,-0.755363 1.19395,-0.03945 0.42833,0.800338 0.17652,0.887335 -0.28783,0.09944 z m -136.34176,-1.2 c 0.77729,-0.792 1.48525,-1.44 1.57325,-1.44 0.088,0 -0.47596,0.648 -1.25325,1.44 -0.77729,0.792 -1.48525,1.44 -1.57325,1.44 -0.088,0 0.47596,-0.648 1.25325,-1.44 z m -14.69431,0.48 c 0.4665,-0.97953 0.61431,-1.161069 0.61431,-0.754495 0,0.171695 -0.22394,0.591695 -0.49765,0.933333 -0.46924,0.585698 -0.47591,0.575488 -0.11666,-0.178838 z m 36.34698,-0.959862 c 0.38097,-0.153612 0.84459,-0.540485 1.03027,-0.859717 0.18568,-0.319231 0.34198,-0.410707 0.34733,-0.203278 0.0144,0.558294 -0.91674,1.38585 -1.53313,1.362573 -0.39833,-0.01504 -0.35814,-0.09246 0.15553,-0.299578 z M 21.303225,25.31022 20.36645,24.160001 l 1.080365,1.029744 c 0.5942,0.566359 1.015749,1.083957 0.936775,1.150218 -0.07898,0.06626 -0.565139,-0.397123 -1.080365,-1.029743 z M 47.04,25.920001 c -0.288413,-0.186387 -0.327882,-0.312156 -0.09889,-0.3151 0.209612,-0.0027 0.470112,0.1391 0.578886,0.3151 0.245536,0.397288 0.134758,0.397288 -0.48,0 z m 69.81052,-0.32 c 0,-0.44 0.0726,-0.62 0.16141,-0.4 0.0888,0.22 0.0888,0.58 0,0.8 -0.0888,0.22 -0.16141,0.04 -0.16141,-0.4 z M 181.7,25.381404 c 0.231,-0.09244 0.507,-0.08107 0.61333,0.02526 0.10634,0.106334 -0.0827,0.181966 -0.42,0.168071 -0.37278,-0.01535 -0.4486,-0.09118 -0.19333,-0.193334 z m -137.6,-0.32 c 0.230998,-0.09244 0.506998,-0.08107 0.613334,0.02526 0.106333,0.106334 -0.08267,0.181966 -0.42,0.168071 C 43.92055,25.239385 43.844726,25.163558 44.1,25.061405 Z m -1.94,-0.313333 c 0.22,-0.08877 0.58,-0.08877 0.8,0 0.22,0.08877 0.04,0.161403 -0.4,0.161403 -0.44,0 -0.62,-0.07263 -0.4,-0.161403 z m 128.4,0.08617 c 0,-0.06917 0.22348,-0.21152 0.49662,-0.316334 0.28478,-0.109279 0.41322,-0.05563 0.30111,0.125763 -0.18792,0.304065 -0.79773,0.449744 -0.79773,0.190571 z m 8.88,-0.08617 c 0.22,-0.08877 0.58,-0.08877 0.8,0 0.22,0.08877 0.04,0.161403 -0.4,0.161403 -0.44,0 -0.62,-0.07263 -0.4,-0.161403 z M 36.88,24.404788 c 0.836,-0.06592 2.204,-0.06592 3.04,0 0.836,0.06592 0.152,0.119854 -1.52,0.119854 -1.672,0 -2.356,-0.05393 -1.52,-0.119854 z M 15.769655,24.084394 c 0.841311,-0.06614 2.137311,-0.06534 2.88,0.0018 0.74269,0.06711 0.05435,0.121223 -1.529655,0.120248 -1.584,-9.6e-4 -2.191655,-0.05588 -1.350345,-0.122021 z M 106,24.081213 c 1.892,-0.05658 4.988,-0.05658 6.88,0 1.892,0.05657 0.344,0.102864 -3.44,0.102864 -3.784,0 -5.332,-0.04629 -3.44,-0.102864 z m 26.88,0 c 1.892,-0.05658 4.988,-0.05658 6.88,0 1.892,0.05657 0.344,0.102864 -3.44,0.102864 -3.784,0 -5.332,-0.04629 -3.44,-0.102864 z m 40.81073,0.0025 c 0.9299,-0.06485 2.3699,-0.06416 3.2,0.0015 0.8301,0.06568 0.0693,0.118733 -1.69073,0.1179 -1.76,-8.32e-4 -2.43917,-0.05457 -1.50927,-0.119415 z m -72.42947,-0.497144 c -0.0872,-0.22739 -0.11821,-2.63939 -0.0688,-5.36 l 0.0899,-4.946565 0.15884,5.360427 c 0.0874,2.948235 0.11832,5.360235 0.0688,5.36 -0.0495,-2.34e-4 -0.16144,-0.186472 -0.2487,-0.413862 z m 43.084,-1.053231 c 0.0154,-0.372782 0.0912,-0.448608 0.19334,-0.193333 0.0924,0.231 0.0811,0.507 -0.0252,0.613333 -0.10634,0.106333 -0.18197,-0.08267 -0.16807,-0.42 z M 154.72,22.080001 c 0.31856,-0.352 0.65119,-0.64 0.73919,-0.64 0.088,0 -0.10063,0.288 -0.41919,0.64 -0.31856,0.352 -0.65119,0.64 -0.73919,0.64 -0.088,0 0.10063,-0.288 0.41919,-0.64 z m -94.257226,-0.88 -1.102774,-1.2 1.2,1.102773 c 1.116934,1.026438 1.347133,1.297227 1.102774,1.297227 -0.05347,0 -0.593475,-0.54 -1.2,-1.2 z M 158.72,18.439183 c 0,-0.06645 0.252,-0.31845 0.56,-0.56 0.50754,-0.398039 0.51886,-0.38672 0.12082,0.120818 -0.41804,0.533039 -0.68082,0.702553 -0.68082,0.439182 z M 52.1,17.381404 c 0.230998,-0.09244 0.506998,-0.08107 0.613334,0.02526 0.106333,0.106334 -0.08267,0.181965 -0.42,0.168071 C 51.92055,17.559385 51.844726,17.483557 52.1,17.381405 Z m 256.06,-0.261403 c -0.2191,-0.264 -0.32636,-0.48 -0.23836,-0.48 0.088,0 0.33926,0.216 0.55836,0.48 0.2191,0.264 0.32636,0.48 0.23836,0.48 -0.088,0 -0.33926,-0.216 -0.55836,-0.48 z M 49.52,17.068071 c 0.22,-0.08877 0.58,-0.08877 0.8,0 0.22,0.08877 0.04,0.161403 -0.4,0.161403 -0.44,0 -0.62,-0.07263 -0.4,-0.161403 z M 21.514269,16.731352 c 0.480848,-0.07302 1.344848,-0.07449 1.92,-0.0033 0.575152,0.07122 0.181731,0.130958 -0.874269,0.132755 -1.056,0.0018 -1.526579,-0.05647 -1.045731,-0.129491 z M 47.353581,16.472267 C 46.765325,15.76346 47.100067,15.681974 47.76,16.373334 c 0.308,0.322667 0.433632,0.586667 0.279181,0.586667 -0.154448,0 -0.46297,-0.21948 -0.6856,-0.487734 z M 189.12,16.480001 c -0.44,-0.251527 -0.64752,-0.462424 -0.46116,-0.468661 0.18636,-0.0062 0.61836,0.200081 0.96,0.458484 0.79007,0.59758 0.53772,0.602729 -0.49884,0.01018 z M 26.8,16.053334 c 0.308,-0.322667 0.61652,-0.542147 0.6856,-0.487733 0.189034,0.148899 -0.642041,1.0744 -0.964782,1.0744 -0.15445,0 -0.02882,-0.264 0.279182,-0.586667 z m 7.906842,-0.07462 c -0.32834,-0.531266 -0.03364,-0.604936 0.425776,-0.106436 0.226937,0.246249 0.271436,0.447726 0.09888,0.447726 -0.172551,0 -0.408647,-0.153581 -0.524659,-0.34129 z m 255.903678,-0.93871 c 0,-0.44 0.0726,-0.62 0.16141,-0.4 0.0888,0.22 0.0888,0.58 0,0.8 -0.0888,0.22 -0.16141,0.04 -0.16141,-0.4 z m -146.26526,-0.18667 c 0.0154,-0.372782 0.0912,-0.448608 0.19334,-0.193333 0.0924,0.231 0.0811,0.507 -0.0252,0.613333 -0.10634,0.106333 -0.18197,-0.08267 -0.16807,-0.42 z M 184.9,14.821404 c 0.231,-0.09244 0.507,-0.08107 0.61333,0.02526 0.10634,0.106334 -0.0827,0.181965 -0.42,0.168071 -0.37278,-0.01535 -0.4486,-0.09118 -0.19333,-0.193334 z M 276.21052,14.08 c 0,-0.44 0.0726,-0.62 0.16141,-0.4 0.0888,0.22 0.0888,0.580001 0,0.800001 -0.0888,0.22 -0.16141,0.04 -0.16141,-0.400001 z M 167.77229,13.941991 c 0.60661,-0.606608 2.26221,-0.688195 2.06964,-0.101991 -0.0723,0.22 -0.68045,0.445896 -1.35151,0.501991 -1.1083,0.09264 -1.17411,0.05599 -0.71813,-0.4 z m 12.60104,0.244676 C 179.91158,13.724912 180.20521,13.44 181.14286,13.44 c 0.54057,0 1.19886,0.216 1.46286,0.48 0.42666,0.426667 0.34116,0.480001 -0.76953,0.480001 -0.68724,0 -1.34552,-0.096 -1.46286,-0.213334 z m 150.21192,-0.293333 c 0.0154,-0.372782 0.0912,-0.448608 0.19334,-0.193334 0.0924,0.231 0.0811,0.507001 -0.0253,0.613334 -0.10633,0.106333 -0.18198,-0.08267 -0.16809,-0.42 z M 27.250526,7.0400002 c 0,-0.44 0.07263,-0.62 0.161404,-0.4 0.08877,0.22 0.08877,0.5800001 0,0.8000001 -0.08877,0.22 -0.161404,0.04 -0.161404,-0.4000001 z"
       id="path3716"
       inkscape:connector-curvature="0" />
    <path
       style="fill:#ffffff;stroke-width:0.31999999"
       d="m 27.52,74.624003 c 0,-3.754666 -0.11581,-5.491809 -0.384,-5.760001 -0.272025,-0.272025 -2.177295,-0.384 -6.533828,-0.384 -3.382405,0 -6.377605,-0.0874 -6.656,-0.194236 -0.653124,-0.250628 -0.695901,-2.861748 -0.05734,-3.500308 0.246856,-0.246854 0.548883,-1.17631 0.671172,-2.065456 0.319624,-2.323945 0.675812,-2.56 3.862857,-2.56 2.908034,0 3.748577,-0.404336 4.140731,-1.991859 0.09893,-0.400477 0.138589,-7.745469 0.08814,-16.322202 L 22.56,26.251876 21.514643,25.205938 c -1.03614,-1.036714 -1.076348,-1.046892 -4.56,-1.154249 L 13.44,23.943376 v -3.470123 c 0,-3.029879 0.07137,-3.492777 0.562571,-3.648677 0.309414,-0.09821 3.239125,-0.143909 6.51047,-0.101565 4.659231,0.06031 6.062626,-0.01816 6.477429,-0.362193 0.453274,-0.375937 0.52953,-1.193893 0.52953,-5.68 V 5.4400002 h 3.512263 3.512262 L 34.632262,10.8 34.72,16.160001 l 2.368992,0.09501 c 1.302947,0.05225 2.510675,-0.04668 2.683843,-0.219844 0.183056,-0.183056 0.28993,-2.237508 0.255315,-4.907937 C 39.99541,8.6010327 40.06308,6.2879622 40.178541,5.9870733 40.479706,5.2022546 46.546016,5.1650421 46.845763,5.946172 46.952595,6.2245669 47.04,8.6549347 47.04,11.34699 c 0,3.525647 0.111878,4.987331 0.4,5.226027 0.22,0.18226 1.552,0.491388 2.96,0.686952 6.979066,0.969356 11.26447,3.752472 12.88592,8.368643 1.611741,4.588534 0.683715,9.029197 -2.543082,12.16881 -1.724137,1.677552 -1.810502,1.830746 -1.295084,2.297127 0.303734,0.274838 1.200246,0.778313 1.992246,1.118835 1.99137,0.856192 4.755744,3.430317 5.467814,5.091501 0.324192,0.756313 0.73856,1.375117 0.920813,1.375117 0.529898,0 0.443818,9.168378 -0.088,9.372454 -0.230649,0.08851 -0.597155,0.754336 -0.814454,1.479616 -1.573904,5.253213 -7.472742,8.82938 -15.799517,9.578442 -1.712336,0.154039 -3.332336,0.461821 -3.6,0.683962 C 47.12993,69.123734 47.04,70.102831 47.04,74.093014 c 0,2.692054 -0.0874,5.122422 -0.194237,5.400816 -0.287024,0.747978 -6.364502,0.747978 -6.651526,0 C 40.087405,79.215436 40,76.772502 40,74.065091 40,68.437615 40.05181,68.539321 37.22873,68.624265 34.572522,68.704185 34.56,68.732972 34.56,74.759183 v 5.24082 H 31.04 27.52 Z M 43.265107,60.179631 c 5.360858,-0.479158 8.941111,-2.057095 10.150557,-4.473683 0.91807,-1.834391 1.00775,-2.710631 0.464998,-4.543341 -0.72518,-2.448698 -2.275846,-3.828663 -5.514131,-4.907108 C 46.18943,45.530456 45.055469,45.37589 40.734403,45.215179 36.207485,45.046814 35.59992,45.085797 35.109645,45.576072 34.625254,46.060459 34.56,46.918107 34.56,52.800002 c 0,5.640867 0.07786,6.752147 0.502858,7.177143 0.581395,0.581395 3.231155,0.646809 8.202249,0.202486 z m 0.301082,-22.28339 c 0.993405,-0.250931 2.073405,-0.456857 2.4,-0.457609 0.861161,-0.0019 3.202605,-1.643559 4.122272,-2.8901 C 50.726938,33.683128 50.88,33.097854 50.88,31.521886 50.88,29.235725 49.965792,27.51202 48.10704,26.29358 45.969139,24.892151 36.682502,23.697155 35.2,24.632713 c -0.394029,0.248658 -0.497702,1.419356 -0.578835,6.536265 -0.122912,7.751839 -0.299776,7.437395 4.098835,7.287263 1.672,-0.05707 3.852787,-0.309068 4.846189,-0.56 z M 168.43206,71.555657 c -0.20237,-0.231002 -1.18503,-0.516035 -2.18369,-0.633408 -0.99865,-0.117373 -2.37534,-0.498893 -3.0593,-0.847824 -0.68397,-0.348935 -1.3964,-0.634423 -1.58318,-0.634423 -1.14705,0 -5.81797,-3.794262 -7.52421,-6.112025 -3.77195,-5.123821 -5.59263,-11.739527 -5.59902,-20.34482 -0.006,-8.702647 2.26956,-15.843609 6.75062,-21.179807 1.8798,-2.238531 5.56499,-4.96199 7.71788,-5.703719 0.6854,-0.236141 1.57172,-0.642645 1.9696,-0.903342 0.39787,-0.260696 1.62637,-0.568373 2.73001,-0.683725 1.22617,-0.128162 2.07099,-0.377523 2.17215,-0.641148 0.25727,-0.670411 10.19462,-0.624223 10.4528,0.04858 0.11756,0.306353 0.62195,0.484124 1.39424,0.4914 0.66552,0.0063 2.00204,0.201081 2.97004,0.432914 2.05653,0.492536 6.51765,2.489397 6.88333,3.08108 0.14571,0.235762 -0.0282,0.962696 -0.4119,1.721356 -0.36528,0.722288 -1.13538,2.579354 -1.71133,4.126813 -0.57597,1.547459 -1.24318,2.976204 -1.4827,3.174989 -0.32743,0.271744 -0.80793,0.233504 -1.93645,-0.154108 C 185.15543,26.5109 183.4,25.907229 182.08,25.452954 c -4.09913,-1.410709 -4.29942,-1.452913 -6.90272,-1.454495 -6.58627,-0.004 -11.45617,3.925148 -13.44097,10.844483 -0.79969,2.787875 -0.82946,3.174557 -0.69851,9.074509 0.15769,7.104964 0.58608,8.868656 2.97751,12.258621 1.79207,2.540346 3.60895,3.776961 7.20741,4.90554 1.58915,0.498403 6.44512,0.447888 8.9374,-0.09298 1.14393,-0.248253 3.15784,-0.685415 4.47536,-0.971475 1.31751,-0.286061 2.53431,-0.658948 2.704,-0.828634 0.4285,-0.428506 1.6945,-0.386599 1.97381,0.06534 0.12708,0.205623 0.22868,2.401623 0.22578,4.880001 l -0.005,4.506137 -1.72689,0.847008 c -1.92071,0.942074 -5.0964,1.72858 -6.44898,1.597185 -0.56443,-0.05483 -0.95128,0.09464 -1.07423,0.415059 -0.16455,0.428806 -1.00328,0.499001 -5.83792,0.488576 -4.24741,-0.0092 -5.7369,-0.116199 -6.01371,-0.432173 z M 80.56,70.304188 79.68,69.956457 V 41.698229 13.44 h 6.24 6.24 v 28.308744 c 0,27.660516 -0.01418,28.316327 -0.618963,28.640001 -0.816269,0.436851 -9.837303,0.367389 -10.981037,-0.08456 z m 36.73309,-0.09681 c -0.46105,-0.461056 -0.50957,-2.782112 -0.48229,-23.072776 0.0167,-12.408083 -0.0626,-22.653402 -0.17619,-22.767378 -0.11358,-0.113975 -3.54283,-0.279227 -7.62056,-0.367227 l -7.41405,-0.16 -0.0879,-5.2 -0.0879,-5.200001 h 21.25369 c 19.08539,0 21.2735,0.05164 21.44792,0.506172 0.37715,0.982829 0.21461,9.265459 -0.18976,9.669829 -0.27459,0.274587 -2.34886,0.385396 -7.28,0.3889 -3.7928,0.0027 -7.0797,0.121481 -7.30422,0.263968 -0.32491,0.206189 -0.40575,4.905234 -0.39607,23.021737 0.0119,22.233323 -0.002,22.77042 -0.61074,23.09603 -0.35503,0.19001 -2.75505,0.333366 -5.58108,0.333366 -4.12083,0 -5.04475,-0.08657 -5.4708,-0.51262 z M 264.88,70.37437 c -0.52665,-0.306748 -0.56,-2.011571 -0.56,-28.630269 V 13.44 h 5.92 5.92 l 0.002,0.72 c 9.6e-4,0.396001 0.003,13.104001 0.004,28.240001 0.002,25.559009 -0.0365,27.548504 -0.543,27.920001 -0.67732,0.496829 -9.90317,0.54352 -10.74299,0.05437 z m 26.72,0.02778 -0.72,-0.301523 V 41.770309 13.44 l 7.76,0.0123 7.76,0.0123 0.96,1.896866 c 1.10548,2.184328 8.10753,14.418196 9.61463,16.79853 0.55717,0.88 1.52452,2.536001 2.14966,3.680001 0.62515,1.144 2.68445,4.744 4.57625,8 1.89181,3.256 3.91162,6.784 4.48848,7.84 0.5769,1.056 1.50845,2.352 2.07018,2.88 l 1.02128,0.96 -0.21014,-4.16 c -0.15399,-3.047757 -0.30708,-31.559354 -0.20061,-37.360001 0.009,-0.510292 0.47894,-0.56 5.29027,-0.56 h 5.28 v 28.308743 c 0,27.660516 -0.0141,28.316328 -0.61898,28.640001 -0.92096,0.492893 -13.41654,0.429037 -14.37491,-0.07346 -0.41462,-0.217405 -1.29993,-1.403283 -1.96733,-2.635283 -0.66739,-1.232 -3.40553,-6.056001 -6.08472,-10.720001 -2.67919,-4.664 -5.3098,-9.272 -5.84579,-10.24 -0.53599,-0.968 -1.57691,-2.768 -2.31315,-4 -0.73624,-1.232 -2.23568,-3.824 -3.33208,-5.76 -1.0964,-1.936 -2.12512,-3.736001 -2.28603,-4.000001 -0.16092,-0.264 -0.8043,-1.461758 -1.42974,-2.661685 -0.63739,-1.222851 -1.30639,-2.124972 -1.52221,-2.052642 -0.27095,0.0908 -0.38175,1.211469 -0.37391,3.781684 0.006,2.008954 0.0539,11.404906 0.10609,20.879892 0.0522,9.474989 -3.2e-4,17.32299 -0.1169,17.440001 -0.33782,0.339296 -8.88549,0.387773 -9.68034,0.0549 z"
       id="path3714"
       inkscape:connector-curvature="0" />
  </g>
</svg>
