<?xml version="1.0" encoding="UTF-8" standalone="no"?>
<svg
   xmlns:dc="http://purl.org/dc/elements/1.1/"
   xmlns:cc="http://creativecommons.org/ns#"
   xmlns:rdf="http://www.w3.org/1999/02/22-rdf-syntax-ns#"
   xmlns:svg="http://www.w3.org/2000/svg"
   xmlns="http://www.w3.org/2000/svg"
   xmlns:sodipodi="http://sodipodi.sourceforge.net/DTD/sodipodi-0.dtd"
   xmlns:inkscape="http://www.inkscape.org/namespaces/inkscape"
   version="1.0"
   width="1696pt"
   height="241.65938pt"
   viewBox="0 0 1696 241.65938"
   preserveAspectRatio="xMidYMid meet"
   id="svg3838"
   sodipodi:docname="logo.svg"
   inkscape:version="0.92.1 r15371">
  <defs
     id="defs3842" />
  <sodipodi:namedview
     pagecolor="#ffffff"
     bordercolor="#666666"
     borderopacity="1"
     objecttolerance="10"
     gridtolerance="10"
     guidetolerance="10"
     inkscape:pageopacity="0"
     inkscape:pageshadow="2"
     inkscape:window-width="1920"
     inkscape:window-height="1017"
     id="namedview3840"
     showgrid="false"
     fit-margin-top="0"
     fit-margin-left="0"
     fit-margin-right="0"
     fit-margin-bottom="0"
     inkscape:zoom="0.1484375"
     inkscape:cx="1168"
     inkscape:cy="162.2125"
     inkscape:window-x="-8"
     inkscape:window-y="-8"
     inkscape:window-maximized="1"
     inkscape:current-layer="svg3838" />
  <metadata
     id="metadata3804">
Created by potrace 1.15, written by Peter Selinger 2001-2017
<rdf:RDF>
  <cc:Work
     rdf:about="">
    <dc:format>image/svg+xml</dc:format>
    <dc:type
       rdf:resource="http://purl.org/dc/dcmitype/StillImage" />
    <dc:title></dc:title>
  </cc:Work>
</rdf:RDF>
</metadata>
  <g
     transform="matrix(0.1,0,0,-0.1,-84,660)"
     id="g3836"
     style="fill:#000000;stroke:none">
    <path
       d="m 840,5660 v -940 h 180 180 v 467 466 l 26,35 c 40,51 114,82 199,82 89,0 143,-24 176,-76 l 24,-39 3,-467 3,-468 h 179 180 v 473 c 0,519 -4,559 -60,673 -54,110 -155,177 -296,197 -146,21 -281,-17 -383,-109 l -51,-46 v 346 346 H 1020 840 Z"
       id="path3806"
       inkscape:connector-curvature="0" />
    <path
       d="m 11207,6556 c -78,-29 -120,-90 -120,-176 0,-82 28,-127 102,-165 26,-13 53,-16 111,-13 65,2 82,7 113,31 110,84 96,250 -25,313 -44,23 -134,28 -181,10 z"
       id="path3808"
       inkscape:connector-curvature="0" />
    <path
       d="m 14856,6203 c -5,-5 -73,-15 -94,-14 -13,0 -20,-3 -17,-9 5,-9 -15,-15 -37,-11 -5,0 -8,-4 -8,-10 0,-5 -4,-7 -10,-4 -5,3 -10,3 -10,-2 0,-7 -57,-46 -70,-47 -7,-1 -95,-90 -95,-96 -1,-8 -39,-64 -48,-71 -5,-3 -7,-8 -6,-10 1,-2 -3,-20 -11,-39 -29,-79 -30,-95 -30,-495 0,-400 1,-416 30,-495 8,-19 12,-37 11,-39 -1,-2 1,-7 6,-10 9,-7 47,-63 48,-71 1,-8 95,-103 95,-95 0,7 62,-34 71,-48 3,-5 9,-8 13,-8 15,3 56,-12 56,-19 0,-5 8,-8 18,-8 9,0 31,-2 47,-6 39,-8 2551,-8 2590,0 17,4 38,6 48,6 9,0 17,3 17,8 0,7 49,24 59,20 2,-1 7,2 10,7 7,11 75,59 78,56 1,-1 26,21 55,49 29,28 46,47 39,43 -15,-9 25,55 42,66 5,3 8,9 7,13 -1,4 4,21 10,39 7,18 14,39 15,47 2,8 6,26 9,40 8,33 8,776 0,815 -8,40 -9,45 -23,80 -6,17 -11,34 -10,39 0,5 -3,12 -8,15 -14,9 -55,71 -48,71 7,0 -87,94 -95,95 -7,1 -73,42 -87,55 -7,6 -15,10 -18,10 -28,-1 -35,1 -30,10 3,6 -4,9 -17,9 -13,-1 -37,1 -55,5 -28,5 -2541,14 -2547,9 z m 465,-453 c 83,-23 149,-101 149,-177 0,-49 -28,-111 -62,-134 l -29,-21 30,-19 c 60,-36 87,-110 70,-191 -13,-58 -46,-101 -103,-131 -37,-20 -58,-22 -233,-25 l -193,-4 v 356 356 h 168 c 92,0 183,-5 203,-10 z m 749,-50 v -60 h -165 -165 v -80 -80 h 140 140 v -65 -65 h -140 -140 v -90 -90 h 165 165 v -60 -60 h -240 -240 v 355 355 h 240 240 z m 630,0 v -60 h -110 -110 v -295 -295 h -75 -75 v 295 295 h -105 -105 v 60 60 h 290 290 z m 495,-282 c 70,-189 130,-349 132,-355 4,-10 -15,-13 -75,-13 h -81 l -22,70 -23,71 -130,-3 -129,-3 -22,-65 -22,-65 -81,-3 -82,-3 18,48 c 10,26 70,186 133,356 l 114,307 h 71 70 z"
       id="path3810"
       inkscape:connector-curvature="0" />
    <path
       d="m 15100,5555 v -85 h 81 c 44,0 89,4 99,10 28,15 42,67 30,106 -14,41 -49,54 -141,54 h -69 z"
       id="path3812"
       inkscape:connector-curvature="0" />
    <path
       d="m 15100,5265 v -95 h 80 c 84,0 132,15 144,45 10,28 6,89 -8,108 -19,25 -69,37 -148,37 h -68 z"
       id="path3814"
       inkscape:connector-curvature="0" />
    <path
       d="m 16953,5445 -41,-125 h 85 c 64,0 84,3 81,13 -3,6 -22,63 -42,125 -21,61 -39,112 -40,112 -1,0 -20,-56 -43,-125 z"
       id="path3816"
       inkscape:connector-curvature="0" />
    <path
       d="m 4062,6054 c -67,-18 -96,-33 -160,-84 l -52,-40 v 32 c 0,81 7,78 -176,78 h -164 v -915 -915 h 180 180 l 2,301 3,302 31,-26 c 88,-74 222,-109 350,-90 204,29 346,168 415,405 33,113 38,378 10,513 -38,187 -135,336 -259,399 -105,53 -251,70 -360,40 z m 115,-295 c 69,-26 132,-118 153,-226 17,-86 8,-303 -14,-367 -44,-124 -116,-181 -226,-180 -81,1 -143,27 -187,78 l -33,37 v 279 279 l 32,37 c 46,52 99,74 180,74 37,0 79,-5 95,-11 z"
       id="path3818"
       inkscape:connector-curvature="0" />
    <path
       d="m 5368,6060 c -113,-20 -226,-76 -302,-148 -46,-44 -114,-147 -143,-217 -56,-132 -71,-390 -33,-539 43,-169 150,-308 298,-384 117,-61 184,-76 342,-75 118,0 145,3 215,26 95,31 184,82 242,140 71,69 75,58 -104,257 -11,12 -19,8 -55,-27 -81,-79 -225,-124 -334,-104 -128,24 -211,100 -250,226 l -13,45 h 421 420 l -5,168 c -5,183 -18,244 -70,350 -60,123 -175,222 -306,263 -75,23 -247,33 -323,19 z m 233,-311 c 20,-10 48,-32 62,-49 28,-33 57,-115 57,-162 v -28 h -241 -241 l 7,38 c 15,84 69,168 129,199 67,36 159,36 227,2 z"
       id="path3820"
       inkscape:connector-curvature="0" />
    <path
       d="m 6863,6055 c -75,-16 -149,-55 -209,-108 l -44,-39 v 44 c 0,93 10,88 -181,88 h -169 v -660 -660 h 180 180 v 463 463 l 25,35 c 14,19 47,46 73,61 40,24 59,28 120,28 90,0 133,-18 164,-69 23,-36 23,-37 26,-508 l 3,-473 h 179 180 v 454 454 l 33,48 c 45,67 100,94 191,94 91,0 133,-21 164,-80 22,-44 22,-47 22,-507 v -463 h 186 186 l -5,488 c -5,526 -8,555 -62,663 -54,106 -136,165 -259,188 -178,33 -341,-13 -455,-126 -29,-30 -54,-53 -55,-51 -51,88 -104,133 -191,163 -67,23 -204,28 -282,10 z"
       id="path3822"
       inkscape:connector-curvature="0" />
    <path
       d="m 8895,6063 c -165,-22 -323,-122 -413,-261 -143,-221 -143,-623 0,-844 134,-208 383,-303 663,-253 213,38 377,187 452,410 26,75 27,91 27,265 0,174 -1,190 -27,265 -74,222 -237,370 -450,410 -73,14 -182,17 -252,8 z m 213,-311 c 74,-34 131,-120 152,-230 16,-80 8,-279 -14,-349 -38,-119 -128,-188 -245,-187 -151,2 -238,103 -261,302 -16,147 6,290 61,379 60,97 199,136 307,85 z"
       id="path3824"
       inkscape:connector-curvature="0" />
    <path
       d="m 12176,6053 c -222,-47 -378,-204 -447,-448 -19,-66 -23,-105 -24,-230 0,-173 10,-223 67,-345 73,-153 220,-270 398,-317 90,-24 291,-23 380,1 109,30 187,73 263,146 l 71,67 -26,34 c -15,19 -56,65 -90,102 l -63,69 -44,-43 c -109,-103 -302,-135 -427,-71 -73,38 -141,128 -159,210 l -7,32 h 421 421 v 104 c 0,216 -40,372 -124,489 -126,175 -365,253 -610,200 z m 264,-307 c 61,-30 100,-94 107,-175 l 6,-61 h -242 c -132,0 -241,2 -241,4 0,23 45,138 63,163 72,98 193,125 307,69 z"
       id="path3826"
       inkscape:connector-curvature="0" />
    <path
       d="m 13495,6064 c -117,-18 -237,-75 -307,-145 -70,-70 -102,-143 -106,-246 -5,-105 14,-166 74,-232 83,-92 180,-140 393,-192 211,-51 267,-87 265,-173 -3,-80 -98,-133 -224,-124 -111,8 -193,69 -207,152 l -6,36 h -173 -173 l 6,-37 c 25,-180 149,-315 347,-380 71,-23 98,-26 221,-27 116,0 153,4 218,22 157,45 253,117 309,230 30,61 33,75 33,157 -1,78 -4,99 -28,147 -57,116 -184,198 -383,245 -238,56 -295,80 -323,137 -10,22 -11,37 -2,65 47,158 341,143 367,-18 l 7,-41 h 180 180 l -5,58 c -15,156 -151,294 -344,347 -58,16 -261,28 -319,19 z"
       id="path3828"
       inkscape:connector-curvature="0" />
    <path
       d="m 2124,6024 c 4,-9 108,-308 232,-663 l 225,-646 -27,-70 c -47,-121 -110,-165 -236,-165 h -58 v -139 -138 l 30,-6 c 239,-48 421,32 514,226 31,64 566,1585 566,1608 0,6 -82,8 -192,7 l -192,-3 -115,-387 c -64,-213 -118,-389 -122,-392 -4,-4 -81,244 -226,737 l -15,47 h -195 c -177,0 -195,-2 -189,-16 z"
       id="path3830"
       inkscape:connector-curvature="0" />
    <path
       d="m 9710,6031 c 0,-5 98,-301 219,-658 l 218,-648 174,-3 174,-2 219,647 c 120,357 221,654 224,661 3,9 -38,12 -186,12 h -190 l -19,-72 c -141,-517 -218,-786 -222,-782 -3,2 -57,195 -121,427 l -116,422 -187,3 c -111,1 -187,-1 -187,-7 z"
       id="path3832"
       inkscape:connector-curvature="0" />
    <path
       d="m 11100,5380 v -660 h 185 185 v 660 660 h -185 -185 z"
       id="path3834"
       inkscape:connector-curvature="0" />
  </g>
</svg>
