<?xml version="1.0" encoding="UTF-8" standalone="no"?>
<!-- Created with Inkscape (http://www.inkscape.org/) -->

<svg
   xmlns:dc="http://purl.org/dc/elements/1.1/"
   xmlns:cc="http://creativecommons.org/ns#"
   xmlns:rdf="http://www.w3.org/1999/02/22-rdf-syntax-ns#"
   xmlns:svg="http://www.w3.org/2000/svg"
   xmlns="http://www.w3.org/2000/svg"
   xmlns:sodipodi="http://sodipodi.sourceforge.net/DTD/sodipodi-0.dtd"
   xmlns:inkscape="http://www.inkscape.org/namespaces/inkscape"
   width="18.617863mm"
   height="16.468578mm"
   viewBox="0 0 18.617863 16.468579"
   version="1.1"
   id="svg5001"
   inkscape:version="0.92.1 r15371"
   sodipodi:docname="draw.svg">
  <defs
     id="defs4995" />
  <sodipodi:namedview
     id="base"
     pagecolor="#ffffff"
     bordercolor="#666666"
     borderopacity="1.0"
     inkscape:pageopacity="0.0"
     inkscape:pageshadow="2"
     inkscape:zoom="5.6"
     inkscape:cx="33.064045"
     inkscape:cy="40.431714"
     inkscape:document-units="mm"
     inkscape:current-layer="layer1"
     showgrid="false"
     fit-margin-top="0"
     fit-margin-left="0"
     fit-margin-right="0"
     fit-margin-bottom="0"
     inkscape:window-width="1920"
     inkscape:window-height="1017"
     inkscape:window-x="-8"
     inkscape:window-y="-8"
     inkscape:window-maximized="1" />
  <metadata
     id="metadata4998">
    <rdf:RDF>
      <cc:Work
         rdf:about="">
        <dc:format>image/svg+xml</dc:format>
        <dc:type
           rdf:resource="http://purl.org/dc/dcmitype/StillImage" />
        <dc:title></dc:title>
      </cc:Work>
    </rdf:RDF>
  </metadata>
  <g
     inkscape:label="Layer 1"
     inkscape:groupmode="layer"
     id="layer1"
     transform="translate(-73.116314,-176.83279)">
    <path
       d="m 86.713571,183.41398 -0.277989,-0.27694 3.185231,-3.18523 0.27693,0.27693 z m -1.037167,-1.03929 -0.278341,-0.27728 3.185583,-3.18488 0.276578,0.27728 z m 2.407356,8.77288 c 0.372533,0 0.671336,0.29951 0.671336,0.67134 0,0.37077 -0.299861,0.67239 -0.671336,0.67239 -0.369358,0 -0.670278,-0.30304 -0.670278,-0.67239 0,-0.37183 0.30092,-0.67134 0.670278,-0.67134 m 3.478036,-12.25056 -1.658408,-1.66053 c -0.23107,-0.22965 -0.603956,-0.22965 -0.834673,0 -0.132997,0.13441 -0.180975,0.31821 -0.155927,0.49319 -0.124531,0 -0.245886,0.0483 -0.353484,0.12664 l -0.01129,-0.0123 -4.297891,4.29718 c 0.04092,0.37712 -0.05045,0.76271 -0.268817,1.09009 l 0.452614,0.4579 0.01058,-0.0109 0.04339,0.0445 -0.947914,0.94721 -3.114675,-3.11115 c 0.350309,-1.25236 0.03387,-2.65324 -0.950383,-3.63926 -0.978958,-0.97437 -2.362905,-1.29469 -3.608564,-0.95638 l 2.109964,2.10855 -0.554214,2.06622 -2.06763,0.55351 -2.1082,-2.1089 c -0.337256,1.2453 -0.01835,2.6296 0.959555,3.60821 1.025878,1.02588 2.502253,1.3268 3.794125,0.90664 l 0.01094,0.0109 3.048353,3.04589 -2.89948,2.89877 -0.158398,-0.15416 -0.812094,0.6551 -1.373011,2.1643 0.350661,0.35101 2.16288,-1.37231 0.659342,-0.81456 -0.156986,-0.15557 2.89948,-2.89913 4.956881,4.95758 c 0.3429,0.34326 0.794808,0.51612 1.242836,0.51612 0.45085,0 0.899231,-0.17286 1.2446,-0.51612 0.685095,-0.68368 0.685095,-1.79634 0,-2.48602 l -4.960408,-4.95512 0.929922,-0.93168 0.407106,0.4138 c 0.331611,-0.22507 0.719666,-0.32138 1.103841,-0.2794 l 4.238625,-4.23721 0.06068,-0.0593 -0.0127,-0.0127 c 0.08008,-0.10653 0.125942,-0.22789 0.125942,-0.35136 0.176036,0.0233 0.357716,-0.0229 0.491772,-0.1584 0.231069,-0.22789 0.231069,-0.60043 0.0011,-0.83079"
       style="fill:#555555;fill-opacity:1;fill-rule:nonzero;stroke:none;stroke-width:0.35277775"
       id="path4781"
       inkscape:connector-curvature="0" />
  </g>
</svg>
