<?xml version="1.0" encoding="UTF-8" standalone="no"?>
<!-- Created with Inkscape (http://www.inkscape.org/) -->

<svg
   xmlns:dc="http://purl.org/dc/elements/1.1/"
   xmlns:cc="http://creativecommons.org/ns#"
   xmlns:rdf="http://www.w3.org/1999/02/22-rdf-syntax-ns#"
   xmlns:svg="http://www.w3.org/2000/svg"
   xmlns="http://www.w3.org/2000/svg"
   xmlns:sodipodi="http://sodipodi.sourceforge.net/DTD/sodipodi-0.dtd"
   xmlns:inkscape="http://www.inkscape.org/namespaces/inkscape"
   width="19.129374mm"
   height="21.251719mm"
   viewBox="0 0 19.129374 21.251719"
   version="1.1"
   id="svg5001"
   inkscape:version="0.92.1 r15371"
   sodipodi:docname="3.svg">
  <defs
     id="defs4995" />
  <sodipodi:namedview
     id="base"
     pagecolor="#ffffff"
     bordercolor="#666666"
     borderopacity="1.0"
     inkscape:pageopacity="0.0"
     inkscape:pageshadow="2"
     inkscape:zoom="5.6"
     inkscape:cx="70.139544"
     inkscape:cy="44.845691"
     inkscape:document-units="mm"
     inkscape:current-layer="layer1"
     showgrid="false"
     fit-margin-top="0"
     fit-margin-left="0"
     fit-margin-right="0"
     fit-margin-bottom="0"
     inkscape:window-width="1920"
     inkscape:window-height="1017"
     inkscape:window-x="-8"
     inkscape:window-y="-8"
     inkscape:window-maximized="1" />
  <metadata
     id="metadata4998">
    <rdf:RDF>
      <cc:Work
         rdf:about="">
        <dc:format>image/svg+xml</dc:format>
        <dc:type
           rdf:resource="http://purl.org/dc/dcmitype/StillImage" />
        <dc:title></dc:title>
      </cc:Work>
    </rdf:RDF>
  </metadata>
  <g
     inkscape:label="Layer 1"
     inkscape:groupmode="layer"
     id="layer1"
     transform="translate(-72.739606,-173.02853)">
    <path
       d="m 83.398809,189.40938 -3.142192,1.90112 c -0.451908,0.27375 -0.45085,0.71508 0.0021,0.98707 l 3.113264,1.86373 c 0.452967,0.27128 0.822678,0.0628 0.825147,-0.46532 l 0.01658,-3.82552 c 0.0014,-0.52811 -0.364067,-0.73413 -0.814917,-0.46108 m -2.162176,-11.50832 3.112911,-1.86372 c 0.452967,-0.27199 0.454025,-0.71332 0.0025,-0.98672 l -3.142223,-1.90147 c -0.451556,-0.27305 -0.817033,-0.067 -0.814564,0.46143 l 0.01693,3.82624 c 0.0014,0.52775 0.370417,0.73624 0.824442,0.46425 m 7.307792,-1.49542 c -0.979664,-0.88477 -2.414059,0.54963 -1.473906,1.26083 1.759303,1.40157 2.88537,3.56129 2.88537,5.98416 0,3.56412 -2.440517,6.55037 -5.738989,7.40057 v 1.97202 c 4.365978,-0.88688 7.652102,-4.74556 7.652102,-9.3726 0,-2.89771 -1.28905,-5.49169 -3.324577,-7.24499 m -11.033478,13.20729 c -1.743428,-1.40194 -2.858558,-3.55176 -2.858558,-5.9623 0,-3.56411 2.440869,-6.55037 5.738988,-7.40198 v -1.97132 c -4.365624,0.88653 -7.651749,4.74627 -7.651749,9.3733 0,2.85821 1.255183,5.4229 3.243438,7.17515 1.538817,1.43334 2.495198,-0.47978 1.527881,-1.21285"
       style="fill:#555555;fill-opacity:1;fill-rule:nonzero;stroke:none;stroke-width:0.35277775"
       id="path4821"
       inkscape:connector-curvature="0" />
  </g>
</svg>
